<svg version="1.1" viewBox="0.0 0.0 618.2519685039371 357.84514435695536" fill="none" stroke="none" stroke-linecap="square" stroke-miterlimit="10" xmlns:xlink="http://www.w3.org/1999/xlink" xmlns="http://www.w3.org/2000/svg"><clipPath id="p.0"><path d="m0 0l618.25195 0l0 357.84515l-618.25195 0l0 -357.84515z" clip-rule="nonzero"/></clipPath><g clip-path="url(#p.0)"><path fill="#000000" fill-opacity="0.0" d="m0 0l618.25195 0l0 357.84515l-618.25195 0z" fill-rule="evenodd"/><path fill="#000000" fill-opacity="0.0" d="m214.22835 14.661711l0 0c0 -8.097439 6.56427 -14.661711 14.661713 -14.661711l160.37737 0c3.8885193 0 7.617798 1.5447115 10.367401 4.294316c2.7496033 2.7496037 4.2943115 6.478867 4.2943115 10.367395l0 58.64508c0 8.097443 -6.56427 14.661713 -14.661713 14.661713l-160.37737 0c-8.097443 0 -14.661713 -6.56427 -14.661713 -14.661713z" fill-rule="evenodd"/><path stroke="#b7b7b7" stroke-width="1.0" stroke-linejoin="round" stroke-linecap="butt" d="m214.22835 14.661711l0 0c0 -8.097439 6.56427 -14.661711 14.661713 -14.661711l160.37737 0c3.8885193 0 7.617798 1.5447115 10.367401 4.294316c2.7496033 2.7496037 4.2943115 6.478867 4.2943115 10.367395l0 58.64508c0 8.097443 -6.56427 14.661713 -14.661713 14.661713l-160.37737 0c-8.097443 0 -14.661713 -6.56427 -14.661713 -14.661713z" fill-rule="evenodd"/><path fill="#000000" d="m295.4508 35.300503l-7.140625 0l0 19.34375l-1.765625 0l0 -19.34375l-7.125 0l0 -1.5l16.03125 0l0 1.5zm11.1297 19.34375q-0.265625 -0.734375 -0.328125 -2.15625q-0.90625 1.171875 -2.3125 1.8125q-1.390625 0.625 -2.9375 0.625q-2.234375 0 -3.625 -1.234375q-1.375 -1.25 -1.375 -3.15625q0 -2.265625 1.875 -3.578125q1.890625 -1.3125 5.25 -1.3125l3.109375 0l0 -1.765625q0 -1.671875 -1.03125 -2.609375q-1.015625 -0.953125 -2.984375 -0.953125q-1.78125 0 -2.96875 0.921875q-1.171875 0.90625 -1.171875 2.1875l-1.71875 -0.015625q0 -1.84375 1.71875 -3.1875q1.71875 -1.359375 4.234375 -1.359375q2.59375 0 4.078125 1.296875q1.5 1.296875 1.546875 3.609375l0 7.34375q0 2.25 0.46875 3.359375l0 0.171875l-1.828125 0zm-5.390625 -1.234375q1.71875 0 3.078125 -0.828125q1.359375 -0.828125 1.96875 -2.21875l0 -3.40625l-3.0625 0q-2.5625 0.03125 -4.015625 0.9375q-1.4375 0.90625 -1.4375 2.5q0 1.296875 0.953125 2.15625q0.96875 0.859375 2.515625 0.859375zm20.600098 -2.703125q0 -1.28125 -1.03125 -2.046875q-1.015625 -0.78125 -3.078125 -1.203125q-2.0625 -0.4375 -3.203125 -1.0q-1.140625 -0.578125 -1.6875 -1.390625q-0.546875 -0.8125 -0.546875 -1.984375q0 -1.828125 1.53125 -3.015625q1.53125 -1.203125 3.921875 -1.203125q2.59375 0 4.15625 1.28125q1.5625 1.28125 1.5625 3.34375l-1.71875 0q0 -1.359375 -1.140625 -2.265625q-1.125 -0.90625 -2.859375 -0.90625q-1.6875 0 -2.71875 0.765625q-1.015625 0.75 -1.015625 1.953125q0 1.15625 0.84375 1.796875q0.859375 0.640625 3.109375 1.171875q2.25 0.515625 3.375 1.125q1.125 0.59375 1.671875 1.4375q0.546875 0.84375 0.546875 2.046875q0 1.96875 -1.59375 3.140625q-1.578125 1.171875 -4.125 1.171875q-2.703125 0 -4.390625 -1.296875q-1.671875 -1.3125 -1.671875 -3.328125l1.71875 0q0.09375 1.515625 1.25 2.359375q1.171875 0.828125 3.09375 0.828125q1.796875 0 2.890625 -0.78125q1.109375 -0.796875 1.109375 -2.0zm9.25647 -3.859375l-1.96875 1.875l0 5.921875l-1.71875 0l0 -22.0l1.71875 0l0 14.078125l1.625 -1.75l5.921875 -5.828125l2.15625 0l-6.5625 6.53125l7.140625 8.96875l-2.046875 0l-6.265625 -7.796875z" fill-rule="nonzero"/><path fill="#000000" fill-opacity="0.0" d="m0 184.14728l0 0c0 -8.097443 6.5642715 -14.661713 14.661711 -14.661713l160.37737 0c3.8885193 0 7.6177826 1.5447083 10.367401 4.2943115c2.7496033 2.7496033 4.2943115 6.4788666 4.2943115 10.367401l0 58.64508c0 8.097443 -6.56427 14.661713 -14.661713 14.661713l-160.37737 0c-8.097439 0 -14.661711 -6.56427 -14.661711 -14.661713z" fill-rule="evenodd"/><path stroke="#ffd966" stroke-width="1.0" stroke-linejoin="round" stroke-linecap="butt" d="m0 184.14728l0 0c0 -8.097443 6.5642715 -14.661713 14.661711 -14.661713l160.37737 0c3.8885193 0 7.6177826 1.5447083 10.367401 4.2943115c2.7496033 2.7496033 4.2943115 6.4788666 4.2943115 10.367401l0 58.64508c0 8.097443 -6.56427 14.661713 -14.661713 14.661713l-160.37737 0c-8.097439 0 -14.661711 -6.56427 -14.661711 -14.661713z" fill-rule="evenodd"/><path fill="#000000" d="m32.596485 220.79106l10.546875 0l0 1.21875l-12.281252 0l0 -1.09375l10.125002 -14.734375l-9.828127 0l0 -1.234375l11.609377 0l0 1.03125l-10.171875 14.8125zm18.046875 1.453125q-1.609375 0 -2.921875 -0.796875q-1.296875 -0.796875 -2.03125 -2.21875q-0.71875 -1.421875 -0.71875 -3.203125l0 -0.5q0 -1.828125 0.703125 -3.28125q0.703125 -1.46875 1.96875 -2.3125q1.265625 -0.84375 2.75 -0.84375q2.3125 0 3.65625 1.578125q1.359375 1.578125 1.359375 4.3125l0 0.78125l-9.046875 0l0 0.265625q0 2.15625 1.234375 3.59375q1.234375 1.4375 3.109375 1.4375q1.125 0 1.984375 -0.40625q0.859375 -0.40625 1.5625 -1.3125l0.890625 0.671875q-1.546875 2.234375 -4.5 2.234375zm-0.25 -11.953125q-1.578125 0 -2.671875 1.15625q-1.078125 1.15625 -1.3125 3.125l7.609375 0l0 -0.15625q-0.0625 -1.828125 -1.046875 -2.96875q-0.984375 -1.15625 -2.578125 -1.15625zm13.6015625 0.234375q-0.4375 -0.078125 -0.953125 -0.078125q-1.3125 0 -2.21875 0.734375q-0.90625 0.71875 -1.296875 2.125l0 8.703125l-1.390625 0l0 -12.6875l1.375 0l0.015625 2.015625q1.125 -2.25 3.578125 -2.25q0.59375 0 0.9218712 0.15625l-0.031246185 1.28125zm1.2148399 4.953125q0 -1.828125 0.703125 -3.28125q0.703125 -1.46875 2.0 -2.28125q1.296875 -0.828125 2.9375 -0.828125q2.53125 0 4.09375 1.78125q1.578125 1.78125 1.578125 4.703125l0 0.296875q0 1.84375 -0.71875 3.3125q-0.703125 1.46875 -2.0 2.265625q-1.28125 0.796875 -2.921875 0.796875q-2.53125 0 -4.109375 -1.765625q-1.5625 -1.78125 -1.5625 -4.71875l0 -0.28125zm1.40625 0.390625q0 2.265625 1.171875 3.734375q1.171875 1.453125 3.09375 1.453125q1.890625 0 3.0625 -1.453125q1.1875 -1.46875 1.1875 -3.859375l0 -0.265625q0 -1.453125 -0.546875 -2.65625q-0.53125 -1.203125 -1.515625 -1.859375q-0.96875 -0.671875 -2.21875 -0.671875q-1.875 0 -3.0625 1.46875q-1.171875 1.46875 -1.171875 3.84375l0 0.265625zm20.800781 6.140625q-0.203125 -0.59375 -0.265625 -1.765625q-0.734375 0.953125 -1.875 1.484375q-1.140625 0.515625 -2.421875 0.515625q-1.828125 0 -2.96875 -1.015625q-1.125 -1.03125 -1.125 -2.578125q0 -1.859375 1.53125 -2.9375q1.546875 -1.078125 4.3125 -1.078125l2.53125 0l0 -1.4375q0 -1.359375 -0.84375 -2.140625q-0.828125 -0.78125 -2.4375 -0.78125q-1.453125 0 -2.421875 0.75q-0.953125 0.75 -0.953125 1.8125l-1.40625 -0.015625q0 -1.515625 1.40625 -2.625q1.40625 -1.109375 3.453125 -1.109375q2.125 0 3.34375 1.0625q1.21875 1.0625 1.265625 2.96875l0 6.0q0 1.828125 0.375 2.75l0 0.140625l-1.5 0zm-4.40625 -1.015625q1.40625 0 2.515625 -0.671875q1.109375 -0.6875 1.609375 -1.8125l0 -2.796875l-2.5 0q-2.09375 0.03125 -3.28125 0.78125q-1.1875 0.734375 -1.1875 2.03125q0 1.0625 0.78125 1.765625q0.796875 0.703125 2.0625 0.703125zm15.121094 -10.46875q-0.4375 -0.078125 -0.953125 -0.078125q-1.3125 0 -2.21875 0.734375q-0.90625 0.71875 -1.296875 2.125l0 8.703125l-1.390625 0l0 -12.6875l1.375 0l0.015625 2.015625q1.125 -2.25 3.578125 -2.25q0.59375 0 0.921875 0.15625l-0.03125 1.28125zm6.4414062 9.46875l3.703125 -10.671875l1.515625 0l-5.40625 14.84375l-0.28125 0.65625q-1.046875 2.3125 -3.234375 2.3125q-0.5 0 -1.078125 -0.171875l0 -1.15625l0.71875 0.078125q1.03125 0 1.671875 -0.515625q0.640625 -0.515625 1.078125 -1.75l0.625 -1.71875l-4.78125 -12.578125l1.53125 0l3.9375 10.671875zm19.292969 -13.8125l-5.84375 0l0 15.828125l-1.4375 0l0 -15.828125l-5.84375 0l0 -1.234375l13.125 0l0 1.234375zm9.1015625 15.828125q-0.203125 -0.59375 -0.265625 -1.765625q-0.734375 0.953125 -1.875 1.484375q-1.140625 0.515625 -2.421875 0.515625q-1.828125 0 -2.96875 -1.015625q-1.125 -1.03125 -1.125 -2.578125q0 -1.859375 1.53125 -2.9375q1.546875 -1.078125 4.3125 -1.078125l2.53125 0l0 -1.4375q0 -1.359375 -0.84375 -2.140625q-0.828125 -0.78125 -2.4375 -0.78125q-1.453125 0 -2.421875 0.75q-0.953125 0.75 -0.953125 1.8125l-1.40625 -0.015625q0 -1.515625 1.40625 -2.625q1.40625 -1.109375 3.453125 -1.109375q2.125 0 3.34375 1.0625q1.21875 1.0625 1.265625 2.96875l0 6.0q0 1.828125 0.375 2.75l0 0.140625l-1.5 0zm-4.40625 -1.015625q1.40625 0 2.515625 -0.671875q1.109375 -0.6875 1.609375 -1.8125l0 -2.796875l-2.5 0q-2.09375 0.03125 -3.28125 0.78125q-1.1875 0.734375 -1.1875 2.03125q0 1.0625 0.78125 1.765625q0.796875 0.703125 2.0625 0.703125zm16.855469 -2.203125q0 -1.046875 -0.84375 -1.671875q-0.828125 -0.640625 -2.515625 -1.0q-1.6875 -0.359375 -2.625 -0.8125q-0.921875 -0.46875 -1.375 -1.140625q-0.453125 -0.671875 -0.453125 -1.609375q0 -1.5 1.25 -2.484375q1.25 -0.984375 3.21875 -0.984375q2.109375 0 3.390625 1.0625q1.296875 1.046875 1.296875 2.734375l-1.40625 0q0 -1.125 -0.9375 -1.859375q-0.9375 -0.734375 -2.34375 -0.734375q-1.390625 0 -2.234375 0.625q-0.828125 0.609375 -0.828125 1.59375q0 0.9375 0.6875 1.46875q0.703125 0.515625 2.546875 0.953125q1.84375 0.4375 2.765625 0.9375q0.921875 0.484375 1.359375 1.171875q0.453125 0.6875 0.453125 1.671875q0 1.609375 -1.296875 2.578125q-1.296875 0.953125 -3.375 0.953125q-2.21875 0 -3.59375 -1.0625q-1.375 -1.078125 -1.375 -2.71875l1.40625 0q0.078125 1.21875 1.03125 1.90625q0.953125 0.6875 2.53125 0.6875q1.46875 0 2.359375 -0.640625q0.90625 -0.640625 0.90625 -1.625zm7.5742188 -3.171875l-1.609375 1.546875l0 4.84375l-1.40625 0l0 -18.0l1.40625 0l0 11.515625l1.328125 -1.421875l4.84375 -4.78125l1.78125 0l-5.390625 5.34375l5.859375 7.34375l-1.6875 0l-5.125 -6.390625z" fill-rule="nonzero"/><path fill="#000000" fill-opacity="0.0" d="m214.22835 184.14728l0 0c0 -8.097443 6.56427 -14.661713 14.661713 -14.661713l160.37737 0c3.8885193 0 7.617798 1.5447083 10.367401 4.2943115c2.7496033 2.7496033 4.2943115 6.4788666 4.2943115 10.367401l0 58.64508c0 8.097443 -6.56427 14.661713 -14.661713 14.661713l-160.37737 0c-8.097443 0 -14.661713 -6.56427 -14.661713 -14.661713z" fill-rule="evenodd"/><path stroke="#45818e" stroke-width="1.0" stroke-linejoin="round" stroke-linecap="butt" d="m214.22835 184.14728l0 0c0 -8.097443 6.56427 -14.661713 14.661713 -14.661713l160.37737 0c3.8885193 0 7.617798 1.5447083 10.367401 4.2943115c2.7496033 2.7496033 4.2943115 6.4788666 4.2943115 10.367401l0 58.64508c0 8.097443 -6.56427 14.661713 -14.661713 14.661713l-160.37737 0c-8.097443 0 -14.661713 -6.56427 -14.661713 -14.661713z" fill-rule="evenodd"/><path fill="#000000" d="m267.35022 204.94731l0 11.640625q0 1.734375 -0.75 3.015625q-0.75 1.265625 -2.125 1.953125q-1.359375 0.6875 -3.125 0.6875q-2.703125 0 -4.328125 -1.46875q-1.625 -1.46875 -1.671875 -4.078125l0 -11.75l1.421875 0l0 11.546875q0 2.15625 1.234375 3.34375q1.234375 1.1875 3.34375 1.1875q2.109375 0 3.328125 -1.1875q1.21875 -1.203125 1.21875 -3.34375l0 -11.546875l1.453125 0zm5.0390625 4.375l0.046875 2.171875q0.703125 -1.171875 1.765625 -1.78125q1.078125 -0.625 2.359375 -0.625q2.046875 0 3.03125 1.15625q1.0 1.140625 1.015625 3.4375l0 8.328125l-1.390625 0l0 -8.328125q-0.015625 -1.703125 -0.734375 -2.53125q-0.703125 -0.84375 -2.25 -0.84375q-1.3125 0 -2.3125 0.828125q-1.0 0.8125 -1.484375 2.1875l0 8.6875l-1.390625 0l0 -12.6875l1.34375 0zm19.839844 12.6875q-0.203125 -0.59375 -0.265625 -1.765625q-0.734375 0.953125 -1.875 1.484375q-1.140625 0.515625 -2.421875 0.515625q-1.828125 0 -2.96875 -1.015625q-1.125 -1.03125 -1.125 -2.578125q0 -1.859375 1.53125 -2.9375q1.546875 -1.078125 4.3125 -1.078125l2.53125 0l0 -1.4375q0 -1.359375 -0.84375 -2.140625q-0.828125 -0.78125 -2.4375 -0.78125q-1.453125 0 -2.421875 0.75q-0.953125 0.75 -0.953125 1.8125l-1.40625 -0.015625q0 -1.515625 1.40625 -2.625q1.40625 -1.109375 3.453125 -1.109375q2.125 0 3.34375 1.0625q1.21875 1.0625 1.265625 2.96875l0 6.0q0 1.828125 0.375 2.75l0 0.140625l-1.5 0zm-4.40625 -1.015625q1.40625 0 2.515625 -0.671875q1.109375 -0.6875 1.609375 -1.8125l0 -2.796875l-2.5 0q-2.09375 0.03125 -3.28125 0.78125q-1.1875 0.734375 -1.1875 2.03125q0 1.0625 0.78125 1.765625q0.796875 0.703125 2.0625 0.703125zm15.121094 -10.46875q-0.4375 -0.078125 -0.953125 -0.078125q-1.3125 0 -2.21875 0.734375q-0.90625 0.71875 -1.296875 2.125l0 8.703125l-1.390625 0l0 -12.6875l1.375 0l0.015625 2.015625q1.125 -2.25 3.578125 -2.25q0.59375 0 0.921875 0.15625l-0.03125 1.28125zm6.4414062 9.46875l3.703125 -10.671875l1.515625 0l-5.40625 14.84375l-0.28125 0.65625q-1.046875 2.3125 -3.234375 2.3125q-0.5 0 -1.078125 -0.171875l0 -1.15625l0.71875 0.078125q1.03125 0 1.671875 -0.515625q0.640625 -0.515625 1.078125 -1.75l0.625 -1.71875l-4.78125 -12.578125l1.53125 0l3.9375 10.671875zm19.292969 -13.8125l-5.84375 0l0 15.828125l-1.4375 0l0 -15.828125l-5.84375 0l0 -1.234375l13.125 0l0 1.234375zm9.1015625 15.828125q-0.203125 -0.59375 -0.265625 -1.765625q-0.734375 0.953125 -1.875 1.484375q-1.140625 0.515625 -2.421875 0.515625q-1.828125 0 -2.96875 -1.015625q-1.125 -1.03125 -1.125 -2.578125q0 -1.859375 1.53125 -2.9375q1.546875 -1.078125 4.3125 -1.078125l2.53125 0l0 -1.4375q0 -1.359375 -0.84375 -2.140625q-0.828125 -0.78125 -2.4375 -0.78125q-1.453125 0 -2.421875 0.75q-0.953125 0.75 -0.953125 1.8125l-1.40625 -0.015625q0 -1.515625 1.40625 -2.625q1.40625 -1.109375 3.453125 -1.109375q2.125 0 3.34375 1.0625q1.21875 1.0625 1.265625 2.96875l0 6.0q0 1.828125 0.375 2.75l0 0.140625l-1.5 0zm-4.40625 -1.015625q1.40625 0 2.515625 -0.671875q1.109375 -0.6875 1.609375 -1.8125l0 -2.796875l-2.5 0q-2.09375 0.03125 -3.28125 0.78125q-1.1875 0.734375 -1.1875 2.03125q0 1.0625 0.78125 1.765625q0.796875 0.703125 2.0625 0.703125zm16.855469 -2.203125q0 -1.046875 -0.84375 -1.671875q-0.828125 -0.640625 -2.515625 -1.0q-1.6875 -0.359375 -2.625 -0.8125q-0.921875 -0.46875 -1.375 -1.140625q-0.453125 -0.671875 -0.453125 -1.609375q0 -1.5 1.25 -2.484375q1.25 -0.984375 3.21875 -0.984375q2.109375 0 3.390625 1.0625q1.296875 1.046875 1.296875 2.734375l-1.40625 0q0 -1.125 -0.9375 -1.859375q-0.9375 -0.734375 -2.34375 -0.734375q-1.390625 0 -2.234375 0.625q-0.828125 0.609375 -0.828125 1.59375q0 0.9375 0.6875 1.46875q0.703125 0.515625 2.546875 0.953125q1.84375 0.4375 2.765625 0.9375q0.921875 0.484375 1.359375 1.171875q0.453125 0.6875 0.453125 1.671875q0 1.609375 -1.296875 2.578125q-1.296875 0.953125 -3.375 0.953125q-2.21875 0 -3.59375 -1.0625q-1.375 -1.078125 -1.375 -2.71875l1.40625 0q0.078125 1.21875 1.03125 1.90625q0.953125 0.6875 2.53125 0.6875q1.46875 0 2.359375 -0.640625q0.90625 -0.640625 0.90625 -1.625zm7.5742188 -3.171875l-1.609375 1.546875l0 4.84375l-1.40625 0l0 -18.0l1.40625 0l0 11.515625l1.328125 -1.421875l4.84375 -4.78125l1.78125 0l-5.390625 5.34375l5.859375 7.34375l-1.6875 0l-5.125 -6.390625z" fill-rule="nonzero"/><path fill="#000000" fill-opacity="0.0" d="m428.4567 184.14728l0 0c0 -8.097443 6.56427 -14.661713 14.661713 -14.661713l160.37738 0c3.8884888 0 7.617798 1.5447083 10.367371 4.2943115c2.7496338 2.7496033 4.2943115 6.4788666 4.2943115 10.367401l0 58.64508c0 8.097443 -6.56427 14.661713 -14.661682 14.661713l-160.37738 0c-8.097443 0 -14.661713 -6.56427 -14.661713 -14.661713z" fill-rule="evenodd"/><path stroke="#674ea7" stroke-width="1.0" stroke-linejoin="round" stroke-linecap="butt" d="m428.4567 184.14728l0 0c0 -8.097443 6.56427 -14.661713 14.661713 -14.661713l160.37738 0c3.8884888 0 7.617798 1.5447083 10.367371 4.2943115c2.7496338 2.7496033 4.2943115 6.4788666 4.2943115 10.367401l0 58.64508c0 8.097443 -6.56427 14.661713 -14.661682 14.661713l-160.37738 0c-8.097443 0 -14.661713 -6.56427 -14.661713 -14.661713z" fill-rule="evenodd"/><path fill="#000000" d="m467.67233 222.00981l0 -17.0625l5.046875 0q2.734375 0 4.15625 1.140625q1.421875 1.125 1.421875 3.328125q0 1.3125 -0.734375 2.296875q-0.71875 0.984375 -1.96875 1.40625q1.484375 0.328125 2.390625 1.46875q0.921875 1.125 0.921875 2.609375q0 2.265625 -1.46875 3.546875q-1.453125 1.265625 -4.0625 1.265625l-5.703125 0zm1.4375 -8.203125l0 6.984375l4.328125 0q1.859375 0 2.9375 -0.9375q1.078125 -0.953125 1.078125 -2.625q0 -1.578125 -1.03125 -2.5q-1.03125 -0.921875 -2.859375 -0.921875l-4.453125 0zm0 -1.203125l3.9375 0q1.8125 -0.046875 2.796875 -0.859375q1.0 -0.8125 1.0 -2.375q0 -1.640625 -1.03125 -2.40625q-1.03125 -0.78125 -3.09375 -0.78125l-3.609375 0l0 6.421875zm14.519531 9.40625l-1.40625 0l0 -12.6875l1.40625 0l0 12.6875zm-1.65625 -16.34375q0 -0.40625 0.25 -0.671875q0.265625 -0.28125 0.703125 -0.28125q0.453125 0 0.71875 0.28125q0.265625 0.265625 0.265625 0.671875q0 0.390625 -0.265625 0.671875q-0.265625 0.265625 -0.71875 0.265625q-0.4375 0 -0.703125 -0.265625q-0.25 -0.28125 -0.25 -0.671875zm6.8007812 3.65625l0.046875 2.171875q0.703125 -1.171875 1.765625 -1.78125q1.078125 -0.625 2.359375 -0.625q2.046875 0 3.03125 1.15625q1.0 1.140625 1.015625 3.4375l0 8.328125l-1.390625 0l0 -8.328125q-0.015625 -1.703125 -0.734375 -2.53125q-0.703125 -0.84375 -2.25 -0.84375q-1.3125 0 -2.3125 0.828125q-1.0 0.8125 -1.484375 2.1875l0 8.6875l-1.390625 0l0 -12.6875l1.34375 0zm19.839844 12.6875q-0.203125 -0.59375 -0.265625 -1.765625q-0.734375 0.953125 -1.875 1.484375q-1.140625 0.515625 -2.421875 0.515625q-1.828125 0 -2.96875 -1.015625q-1.125 -1.03125 -1.125 -2.578125q0 -1.859375 1.53125 -2.9375q1.546875 -1.078125 4.3125 -1.078125l2.53125 0l0 -1.4375q0 -1.359375 -0.84375 -2.140625q-0.828125 -0.78125 -2.4375 -0.78125q-1.453125 0 -2.421875 0.75q-0.953125 0.75 -0.953125 1.8125l-1.40625 -0.015625q0 -1.515625 1.40625 -2.625q1.40625 -1.109375 3.453125 -1.109375q2.125 0 3.34375 1.0625q1.21875 1.0625 1.265625 2.96875l0 6.0q0 1.828125 0.375 2.75l0 0.140625l-1.5 0zm-4.40625 -1.015625q1.40625 0 2.515625 -0.671875q1.109375 -0.6875 1.609375 -1.8125l0 -2.796875l-2.5 0q-2.09375 0.03125 -3.28125 0.78125q-1.1875 0.734375 -1.1875 2.03125q0 1.0625 0.78125 1.765625q0.796875 0.703125 2.0625 0.703125zm15.121063 -10.46875q-0.4375 -0.078125 -0.953125 -0.078125q-1.3125 0 -2.21875 0.734375q-0.90625 0.71875 -1.296875 2.125l0 8.703125l-1.390625 0l0 -12.6875l1.375 0l0.015625 2.015625q1.125 -2.25 3.578125 -2.25q0.59375 0 0.921875 0.15625l-0.03125 1.28125zm6.4414062 9.46875l3.703125 -10.671875l1.515625 0l-5.40625 14.84375l-0.28125 0.65625q-1.046875 2.3125 -3.234375 2.3125q-0.5 0 -1.078125 -0.171875l0 -1.15625l0.71875 0.078125q1.03125 0 1.671875 -0.515625q0.640625 -0.515625 1.078125 -1.75l0.625 -1.71875l-4.78125 -12.578125l1.53125 0l3.9375 10.671875zm19.292969 -13.8125l-5.84375 0l0 15.828125l-1.4375 0l0 -15.828125l-5.84375 0l0 -1.234375l13.125 0l0 1.234375zm9.1015625 15.828125q-0.203125 -0.59375 -0.265625 -1.765625q-0.734375 0.953125 -1.875 1.484375q-1.140625 0.515625 -2.421875 0.515625q-1.828125 0 -2.96875 -1.015625q-1.125 -1.03125 -1.125 -2.578125q0 -1.859375 1.53125 -2.9375q1.546875 -1.078125 4.3125 -1.078125l2.53125 0l0 -1.4375q0 -1.359375 -0.84375 -2.140625q-0.828125 -0.78125 -2.4375 -0.78125q-1.453125 0 -2.421875 0.75q-0.953125 0.75 -0.953125 1.8125l-1.40625 -0.015625q0 -1.515625 1.40625 -2.625q1.40625 -1.109375 3.453125 -1.109375q2.125 0 3.34375 1.0625q1.21875 1.0625 1.265625 2.96875l0 6.0q0 1.828125 0.375 2.75l0 0.140625l-1.5 0zm-4.40625 -1.015625q1.40625 0 2.515625 -0.671875q1.109375 -0.6875 1.609375 -1.8125l0 -2.796875l-2.5 0q-2.09375 0.03125 -3.28125 0.78125q-1.1875 0.734375 -1.1875 2.03125q0 1.0625 0.78125 1.765625q0.796875 0.703125 2.0625 0.703125zm16.855469 -2.203125q0 -1.046875 -0.84375 -1.671875q-0.828125 -0.640625 -2.515625 -1.0q-1.6875 -0.359375 -2.625 -0.8125q-0.921875 -0.46875 -1.375 -1.140625q-0.453125 -0.671875 -0.453125 -1.609375q0 -1.5 1.25 -2.484375q1.25 -0.984375 3.21875 -0.984375q2.109375 0 3.390625 1.0625q1.296875 1.046875 1.296875 2.734375l-1.40625 0q0 -1.125 -0.9375 -1.859375q-0.9375 -0.734375 -2.34375 -0.734375q-1.390625 0 -2.234375 0.625q-0.828125 0.609375 -0.828125 1.59375q0 0.9375 0.6875 1.46875q0.703125 0.515625 2.546875 0.953125q1.84375 0.4375 2.765625 0.9375q0.921875 0.484375 1.359375 1.171875q0.453125 0.6875 0.453125 1.671875q0 1.609375 -1.296875 2.578125q-1.296875 0.953125 -3.375 0.953125q-2.21875 0 -3.59375 -1.0625q-1.375 -1.078125 -1.375 -2.71875l1.40625 0q0.078125 1.21875 1.03125 1.90625q0.953125 0.6875 2.53125 0.6875q1.46875 0 2.359375 -0.640625q0.90625 -0.640625 0.90625 -1.625zm7.5742188 -3.171875l-1.609375 1.546875l0 4.84375l-1.40625 0l0 -18.0l1.40625 0l0 11.515625l1.328125 -1.421875l4.84375 -4.78125l1.78125 0l-5.390625 5.34375l5.859375 7.34375l-1.6875 0l-5.125 -6.390625z" fill-rule="nonzero"/><path fill="#000000" fill-opacity="0.0" d="m6.8031497 272.48032l176.0945 0l0 42.015747l-176.0945 0z" fill-rule="evenodd"/><path fill="#000000" d="m25.042393 299.4003l0 -11.78125l-4.40625 0l0 -1.578125l10.578125 0l0 1.578125l-4.40625 0l0 11.78125l-1.765625 0zm12.34259 -3.109375l1.6875 0.203125q-0.40625 1.484375 -1.484375 2.3125q-1.078125 0.8125 -2.765625 0.8125q-2.125 0 -3.375 -1.296875q-1.234375 -1.3125 -1.234375 -3.671875q0 -2.453125 1.25 -3.796875q1.265625 -1.34375 3.265625 -1.34375q1.9375 0 3.15625 1.328125q1.234375 1.3125 1.234375 3.703125q0 0.15625 0 0.4375l-7.21875 0q0.09375 1.59375 0.90625 2.453125q0.8125 0.84375 2.015625 0.84375q0.90625 0 1.546875 -0.46875q0.640625 -0.484375 1.015625 -1.515625zm-5.390625 -2.65625l5.40625 0q-0.109375 -1.21875 -0.625 -1.828125q-0.78125 -0.953125 -2.03125 -0.953125q-1.125 0 -1.90625 0.765625q-0.765625 0.75 -0.84375 2.015625zm8.047592 5.765625l3.53125 -5.03125l-3.265625 -4.640625l2.046875 0l1.484375 2.265625q0.421875 0.640625 0.671875 1.078125q0.40625 -0.59375 0.734375 -1.0625l1.640625 -2.28125l1.953125 0l-3.34375 4.546875l3.59375 5.125l-2.015625 0l-1.984375 -3.0l-0.515625 -0.8125l-2.546875 3.8125l-1.984375 0zm14.0 -1.46875l0.234375 1.453125q-0.6875 0.140625 -1.234375 0.140625q-0.890625 0 -1.390625 -0.28125q-0.484375 -0.28125 -0.6875 -0.734375q-0.203125 -0.46875 -0.203125 -1.9375l0 -5.578125l-1.203125 0l0 -1.265625l1.203125 0l0 -2.390625l1.625 -0.984375l0 3.375l1.65625 0l0 1.265625l-1.65625 0l0 5.671875q0 0.6875 0.078125 0.890625q0.09375 0.203125 0.28125 0.328125q0.203125 0.109375 0.578125 0.109375q0.265625 0 0.71875 -0.0625zm16.522854 -3.21875l1.765625 0.453125q-0.5625 2.171875 -2.0 3.328125q-1.4375 1.140625 -3.53125 1.140625q-2.15625 0 -3.5156212 -0.875q-1.34375 -0.890625 -2.0625 -2.546875q-0.703125 -1.671875 -0.703125 -3.59375q0 -2.078125 0.796875 -3.625q0.796875 -1.5625 2.265625 -2.359375q1.4843712 -0.8125 3.2499962 -0.8125q2.0 0 3.359375 1.015625q1.375 1.015625 1.90625 2.875l-1.734375 0.40625q-0.46875 -1.453125 -1.359375 -2.109375q-0.875 -0.671875 -2.203125 -0.671875q-1.546875 0 -2.578125 0.734375q-1.0312462 0.734375 -1.4531212 1.984375q-0.421875 1.234375 -0.421875 2.5625q0 1.703125 0.5 2.96875q0.5 1.265625 1.5468712 1.90625q1.046875 0.625 2.265625 0.625q1.484375 0 2.515625 -0.859375q1.03125 -0.859375 1.390625 -2.546875zm3.6916962 4.6875l0 -13.359375l1.640625 0l0 13.359375l-1.640625 0zm10.504196 -1.1875q-0.921875 0.765625 -1.765625 1.09375q-0.828125 0.3125 -1.796875 0.3125q-1.59375 0 -2.453125 -0.78125q-0.859375 -0.78125 -0.859375 -1.984375q0 -0.71875 0.328125 -1.296875q0.328125 -0.59375 0.84375 -0.9375q0.53125 -0.359375 1.1875 -0.546875q0.46875 -0.125 1.453125 -0.25q1.984375 -0.234375 2.921875 -0.5625q0.015625 -0.34375 0.015625 -0.421875q0 -1.0 -0.46875 -1.421875q-0.625 -0.546875 -1.875 -0.546875q-1.15625 0 -1.703125 0.40625q-0.546875 0.40625 -0.8125 1.421875l-1.609375 -0.21875q0.21875 -1.015625 0.71875 -1.640625q0.5 -0.640625 1.453125 -0.984375q0.953125 -0.34375 2.1875 -0.34375q1.25 0 2.015625 0.296875q0.78125 0.28125 1.140625 0.734375q0.375 0.4375 0.515625 1.109375q0.078125 0.421875 0.078125 1.515625l0 2.1875q0 2.28125 0.109375 2.890625q0.109375 0.59375 0.40625 1.15625l-1.703125 0q-0.265625 -0.515625 -0.328125 -1.1875zm-0.140625 -3.671875q-0.890625 0.375 -2.671875 0.625q-1.015625 0.140625 -1.4375 0.328125q-0.421875 0.1875 -0.65625 0.53125q-0.21875 0.34375 -0.21875 0.78125q0 0.65625 0.5 1.09375q0.5 0.4375 1.453125 0.4375q0.9375 0 1.671875 -0.40625q0.75 -0.421875 1.09375 -1.140625q0.265625 -0.5625 0.265625 -1.640625l0 -0.609375zm3.5475922 1.96875l1.625 -0.25q0.125 0.96875 0.75 1.5q0.625 0.515625 1.75 0.515625q1.125 0 1.671875 -0.453125q0.546875 -0.46875 0.546875 -1.09375q0 -0.546875 -0.484375 -0.875q-0.328125 -0.21875 -1.671875 -0.546875q-1.8125 -0.46875 -2.515625 -0.796875q-0.6875 -0.328125 -1.046875 -0.90625q-0.359375 -0.59375 -0.359375 -1.3125q0 -0.640625 0.296875 -1.1875q0.296875 -0.5625 0.8125 -0.921875q0.375 -0.28125 1.03125 -0.46875q0.671875 -0.203125 1.421875 -0.203125q1.140625 0 2.0 0.328125q0.859375 0.328125 1.265625 0.890625q0.421875 0.5625 0.578125 1.5l-1.609375 0.21875q-0.109375 -0.75 -0.640625 -1.171875q-0.515625 -0.421875 -1.46875 -0.421875q-1.140625 0 -1.625 0.375q-0.46875 0.375 -0.46875 0.875q0 0.3125 0.1875 0.578125q0.203125 0.265625 0.640625 0.4375q0.234375 0.09375 1.4375 0.421875q1.75 0.453125 2.4375 0.75q0.6875 0.296875 1.078125 0.859375q0.390625 0.5625 0.390625 1.40625q0 0.828125 -0.484375 1.546875q-0.46875 0.71875 -1.375 1.125q-0.90625 0.390625 -2.046875 0.390625q-1.875 0 -2.875 -0.78125q-0.984375 -0.78125 -1.25 -2.328125zm9.328125 0l1.625 -0.25q0.125 0.96875 0.75 1.5q0.625 0.515625 1.75 0.515625q1.125 0 1.671875 -0.453125q0.546875 -0.46875 0.546875 -1.09375q0 -0.546875 -0.484375 -0.875q-0.328125 -0.21875 -1.671875 -0.546875q-1.8125 -0.46875 -2.515625 -0.796875q-0.6875 -0.328125 -1.046875 -0.90625q-0.359375 -0.59375 -0.359375 -1.3125q0 -0.640625 0.296875 -1.1875q0.296875 -0.5625 0.8125 -0.921875q0.375 -0.28125 1.03125 -0.46875q0.671875 -0.203125 1.421875 -0.203125q1.140625 0 2.0 0.328125q0.859375 0.328125 1.265625 0.890625q0.421875 0.5625 0.578125 1.5l-1.609375 0.21875q-0.109375 -0.75 -0.640625 -1.171875q-0.515625 -0.421875 -1.46875 -0.421875q-1.140625 0 -1.625 0.375q-0.46875 0.375 -0.46875 0.875q0 0.3125 0.1875 0.578125q0.203125 0.265625 0.640625 0.4375q0.234375 0.09375 1.4375 0.421875q1.75 0.453125 2.4375 0.75q0.6875 0.296875 1.078125 0.859375q0.390625 0.5625 0.390625 1.40625q0 0.828125 -0.484375 1.546875q-0.46875 0.71875 -1.375 1.125q-0.90625 0.390625 -2.046875 0.390625q-1.875 0 -2.875 -0.78125q-0.984375 -0.78125 -1.25 -2.328125zm9.984375 -8.578125l0 -1.890625l1.640625 0l0 1.890625l-1.640625 0zm0 11.46875l0 -9.671875l1.640625 0l0 9.671875l-1.640625 0zm4.535446 0l0 -8.40625l-1.453125 0l0 -1.265625l1.453125 0l0 -1.03125q0 -0.96875 0.171875 -1.453125q0.234375 -0.640625 0.828125 -1.03125q0.59375 -0.390625 1.671875 -0.390625q0.6875 0 1.53125 0.15625l-0.25 1.4375q-0.5 -0.09375 -0.953125 -0.09375q-0.75 0 -1.0625 0.328125q-0.3125 0.3125 -0.3125 1.1875l0 0.890625l1.890625 0l0 1.265625l-1.890625 0l0 8.40625l-1.625 0zm4.792679 -11.46875l0 -1.890625l1.640625 0l0 1.890625l-1.640625 0zm0 11.46875l0 -9.671875l1.640625 0l0 9.671875l-1.640625 0zm10.457321 -3.546875l1.609375 0.21875q-0.265625 1.65625 -1.359375 2.609375q-1.078125 0.9375 -2.671875 0.9375q-1.984375 0 -3.1875 -1.296875q-1.203125 -1.296875 -1.203125 -3.71875q0 -1.578125 0.515625 -2.75q0.515625 -1.171875 1.578125 -1.75q1.0625 -0.59375 2.3125 -0.59375q1.578125 0 2.578125 0.796875q1.0 0.796875 1.28125 2.265625l-1.59375 0.234375q-0.234375 -0.96875 -0.8125 -1.453125q-0.578125 -0.5 -1.390625 -0.5q-1.234375 0 -2.015625 0.890625q-0.78125 0.890625 -0.78125 2.8125q0 1.953125 0.75 2.84375q0.75 0.875 1.953125 0.875q0.96875 0 1.609375 -0.59375q0.65625 -0.59375 0.828125 -1.828125zm9.328125 2.359375q-0.921875 0.765625 -1.765625 1.09375q-0.828125 0.3125 -1.796875 0.3125q-1.59375 0 -2.453125 -0.78125q-0.859375 -0.78125 -0.859375 -1.984375q0 -0.71875 0.328125 -1.296875q0.328125 -0.59375 0.84375 -0.9375q0.53125 -0.359375 1.1875 -0.546875q0.46875 -0.125 1.453125 -0.25q1.984375 -0.234375 2.921875 -0.5625q0.015625 -0.34375 0.015625 -0.421875q0 -1.0 -0.46875 -1.421875q-0.625 -0.546875 -1.875 -0.546875q-1.15625 0 -1.703125 0.40625q-0.546875 0.40625 -0.8125 1.421875l-1.609375 -0.21875q0.21875 -1.015625 0.71875 -1.640625q0.5 -0.640625 1.453125 -0.984375q0.953125 -0.34375 2.1875 -0.34375q1.25 0 2.015625 0.296875q0.78125 0.28125 1.140625 0.734375q0.375 0.4375 0.515625 1.109375q0.078125 0.421875 0.078125 1.515625l0 2.1875q0 2.28125 0.109375 2.890625q0.109375 0.59375 0.40625 1.15625l-1.703125 0q-0.265625 -0.515625 -0.328125 -1.1875zm-0.140625 -3.671875q-0.890625 0.375 -2.671875 0.625q-1.015625 0.140625 -1.4375 0.328125q-0.421875 0.1875 -0.65625 0.53125q-0.21875 0.34375 -0.21875 0.78125q0 0.65625 0.5 1.09375q0.5 0.4375 1.453125 0.4375q0.9375 0 1.671875 -0.40625q0.75 -0.421875 1.09375 -1.140625q0.265625 -0.5625 0.265625 -1.640625l0 -0.609375zm7.781967 3.390625l0.234375 1.453125q-0.6875 0.140625 -1.234375 0.140625q-0.890625 0 -1.390625 -0.28125q-0.484375 -0.28125 -0.6875 -0.734375q-0.203125 -0.46875 -0.203125 -1.9375l0 -5.578125l-1.203125 0l0 -1.265625l1.203125 0l0 -2.390625l1.625 -0.984375l0 3.375l1.65625 0l0 1.265625l-1.65625 0l0 5.671875q0 0.6875 0.078125 0.890625q0.09375 0.203125 0.28125 0.328125q0.203125 0.109375 0.578125 0.109375q0.265625 0 0.71875 -0.0625zm1.6051788 -10.0l0 -1.890625l1.640625 0l0 1.890625l-1.640625 0zm0 11.46875l0 -9.671875l1.640625 0l0 9.671875l-1.640625 0zm3.5354462 -4.84375q0 -2.6875 1.484375 -3.96875q1.25 -1.078125 3.046875 -1.078125q2.0 0 3.265625 1.3125q1.265625 1.296875 1.265625 3.609375q0 1.859375 -0.5625 2.9375q-0.5625 1.0625 -1.640625 1.65625q-1.0625 0.59375 -2.328125 0.59375q-2.03125 0 -3.28125 -1.296875q-1.25 -1.3125 -1.25 -3.765625zm1.6875 0q0 1.859375 0.796875 2.796875q0.8125 0.921875 2.046875 0.921875q1.21875 0 2.03125 -0.921875q0.8125 -0.9375 0.8125 -2.84375q0 -1.796875 -0.8125 -2.71875q-0.8125 -0.921875 -2.03125 -0.921875q-1.234375 0 -2.046875 0.921875q-0.796875 0.90625 -0.796875 2.765625zm9.297592 4.84375l0 -9.671875l1.46875 0l0 1.375q1.0625 -1.59375 3.078125 -1.59375q0.875 0 1.609375 0.3125q0.734375 0.3125 1.09375 0.828125q0.375 0.5 0.515625 1.203125q0.09375 0.453125 0.09375 1.59375l0 5.953125l-1.640625 0l0 -5.890625q0 -1.0 -0.203125 -1.484375q-0.1875 -0.5 -0.671875 -0.796875q-0.484375 -0.296875 -1.140625 -0.296875q-1.046875 0 -1.8125 0.671875q-0.75 0.65625 -0.75 2.515625l0 5.28125l-1.640625 0z" fill-rule="nonzero"/><path fill="#000000" fill-opacity="0.0" d="m214.2284 272.48032l189.70078 0l0 42.015747l-189.70078 0z" fill-rule="evenodd"/><path fill="#000000" d="m230.59248 295.10342l1.65625 -0.140625q0.125 1.0 0.546875 1.640625q0.4375 0.640625 1.34375 1.046875q0.921875 0.390625 2.0625 0.390625q1.0 0 1.78125 -0.296875q0.78125 -0.296875 1.15625 -0.8125q0.375 -0.53125 0.375 -1.15625q0 -0.625 -0.375 -1.09375q-0.359375 -0.46875 -1.1875 -0.796875q-0.546875 -0.203125 -2.390625 -0.640625q-1.828125 -0.453125 -2.5625 -0.84375q-0.96875 -0.5 -1.4375 -1.234375q-0.46875 -0.75 -0.46875 -1.671875q0 -1.0 0.578125 -1.875q0.578125 -0.890625 1.671875 -1.34375q1.109375 -0.453125 2.453125 -0.453125q1.484375 0 2.609375 0.484375q1.140625 0.46875 1.75 1.40625q0.609375 0.921875 0.65625 2.09375l-1.6875 0.125q-0.140625 -1.265625 -0.9375 -1.90625q-0.78125 -0.65625 -2.3125 -0.65625q-1.609375 0 -2.34375 0.59375q-0.734375 0.59375 -0.734375 1.421875q0 0.71875 0.53125 1.171875q0.5 0.46875 2.65625 0.96875q2.15625 0.484375 2.953125 0.84375q1.171875 0.53125 1.71875 1.359375q0.5625 0.828125 0.5625 1.90625q0 1.0625 -0.609375 2.015625q-0.609375 0.9375 -1.75 1.46875q-1.140625 0.515625 -2.578125 0.515625q-1.8125 0 -3.046875 -0.53125q-1.21875 -0.53125 -1.921875 -1.59375q-0.6875 -1.0625 -0.71875 -2.40625zm12.834198 8.0l0 -13.375l1.484375 0l0 1.25q0.53125 -0.734375 1.1875 -1.09375q0.671875 -0.375 1.625 -0.375q1.234375 0 2.171875 0.640625q0.953125 0.625 1.4375 1.796875q0.484375 1.15625 0.484375 2.546875q0 1.484375 -0.53125 2.671875q-0.53125 1.1875 -1.546875 1.828125q-1.015625 0.625 -2.140625 0.625q-0.8125 0 -1.46875 -0.34375q-0.65625 -0.34375 -1.0625 -0.875l0 4.703125l-1.640625 0zm1.484375 -8.484375q0 1.859375 0.75 2.765625q0.765625 0.890625 1.828125 0.890625q1.09375 0 1.875 -0.921875q0.78125 -0.9375 0.78125 -2.875q0 -1.84375 -0.765625 -2.765625q-0.75 -0.921875 -1.8125 -0.921875q-1.046875 0 -1.859375 0.984375q-0.796875 0.96875 -0.796875 2.84375zm15.203842 3.59375q-0.921875 0.765625 -1.765625 1.09375q-0.828125 0.3125 -1.796875 0.3125q-1.59375 0 -2.453125 -0.78125q-0.859375 -0.78125 -0.859375 -1.984375q0 -0.71875 0.328125 -1.296875q0.328125 -0.59375 0.84375 -0.9375q0.53125 -0.359375 1.1875 -0.546875q0.46875 -0.125 1.453125 -0.25q1.984375 -0.234375 2.921875 -0.5625q0.015625 -0.34375 0.015625 -0.421875q0 -1.0 -0.46875 -1.421875q-0.625 -0.546875 -1.875 -0.546875q-1.15625 0 -1.703125 0.40625q-0.546875 0.40625 -0.8125 1.421875l-1.609375 -0.21875q0.21875 -1.015625 0.71875 -1.640625q0.5 -0.640625 1.453125 -0.984375q0.953125 -0.34375 2.1875 -0.34375q1.25 0 2.015625 0.296875q0.78125 0.28125 1.140625 0.734375q0.375 0.4375 0.515625 1.109375q0.078125 0.421875 0.078125 1.515625l0 2.1875q0 2.28125 0.109375 2.890625q0.109375 0.59375 0.40625 1.15625l-1.703125 0q-0.265625 -0.515625 -0.328125 -1.1875zm-0.140625 -3.671875q-0.890625 0.375 -2.671875 0.625q-1.015625 0.140625 -1.4375 0.328125q-0.421875 0.1875 -0.65625 0.53125q-0.21875 0.34375 -0.21875 0.78125q0 0.65625 0.5 1.09375q0.5 0.4375 1.453125 0.4375q0.9375 0 1.671875 -0.40625q0.75 -0.421875 1.09375 -1.140625q0.265625 -0.5625 0.265625 -1.640625l0 -0.609375zm4.203827 4.859375l0 -9.671875l1.46875 0l0 1.375q1.0625 -1.59375 3.078125 -1.59375q0.875 0 1.609375 0.3125q0.734375 0.3125 1.09375 0.828125q0.375 0.5 0.515625 1.203125q0.09375 0.453125 0.09375 1.59375l0 5.953125l-1.640625 0l0 -5.890625q0 -1.0 -0.203125 -1.484375q-0.1875 -0.5 -0.671875 -0.796875q-0.484375 -0.296875 -1.140625 -0.296875q-1.046875 0 -1.8125 0.671875q-0.75 0.65625 -0.75 2.515625l0 5.28125l-1.640625 0zm25.293396 -4.6875l1.765625 0.453125q-0.5625 2.171875 -2.0 3.328125q-1.4375 1.140625 -3.53125 1.140625q-2.15625 0 -3.515625 -0.875q-1.34375 -0.890625 -2.0625 -2.546875q-0.703125 -1.671875 -0.703125 -3.59375q0 -2.078125 0.796875 -3.625q0.796875 -1.5625 2.265625 -2.359375q1.484375 -0.8125 3.25 -0.8125q2.0 0 3.359375 1.015625q1.375 1.015625 1.90625 2.875l-1.734375 0.40625q-0.46875 -1.453125 -1.359375 -2.109375q-0.875 -0.671875 -2.203125 -0.671875q-1.546875 0 -2.578125 0.734375q-1.03125 0.734375 -1.453125 1.984375q-0.421875 1.234375 -0.421875 2.5625q0 1.703125 0.5 2.96875q0.5 1.265625 1.546875 1.90625q1.046875 0.625 2.265625 0.625q1.484375 0 2.515625 -0.859375q1.03125 -0.859375 1.390625 -2.546875zm3.6917114 4.6875l0 -13.359375l1.640625 0l0 13.359375l-1.640625 0zm10.504181 -1.1875q-0.921875 0.765625 -1.765625 1.09375q-0.828125 0.3125 -1.796875 0.3125q-1.59375 0 -2.453125 -0.78125q-0.859375 -0.78125 -0.859375 -1.984375q0 -0.71875 0.328125 -1.296875q0.328125 -0.59375 0.84375 -0.9375q0.53125 -0.359375 1.1875 -0.546875q0.46875 -0.125 1.453125 -0.25q1.984375 -0.234375 2.921875 -0.5625q0.015625 -0.34375 0.015625 -0.421875q0 -1.0 -0.46875 -1.421875q-0.625 -0.546875 -1.875 -0.546875q-1.15625 0 -1.703125 0.40625q-0.546875 0.40625 -0.8125 1.421875l-1.609375 -0.21875q0.21875 -1.015625 0.71875 -1.640625q0.5 -0.640625 1.453125 -0.984375q0.953125 -0.34375 2.1875 -0.34375q1.25 0 2.015625 0.296875q0.78125 0.28125 1.140625 0.734375q0.375 0.4375 0.515625 1.109375q0.078125 0.421875 0.078125 1.515625l0 2.1875q0 2.28125 0.109375 2.890625q0.109375 0.59375 0.40625 1.15625l-1.703125 0q-0.265625 -0.515625 -0.328125 -1.1875zm-0.140625 -3.671875q-0.890625 0.375 -2.671875 0.625q-1.015625 0.140625 -1.4375 0.328125q-0.421875 0.1875 -0.65625 0.53125q-0.21875 0.34375 -0.21875 0.78125q0 0.65625 0.5 1.09375q0.5 0.4375 1.453125 0.4375q0.9375 0 1.671875 -0.40625q0.75 -0.421875 1.09375 -1.140625q0.265625 -0.5625 0.265625 -1.640625l0 -0.609375zm3.5476074 1.96875l1.625 -0.25q0.125 0.96875 0.75 1.5q0.625 0.515625 1.75 0.515625q1.125 0 1.671875 -0.453125q0.546875 -0.46875 0.546875 -1.09375q0 -0.546875 -0.484375 -0.875q-0.328125 -0.21875 -1.671875 -0.546875q-1.8125 -0.46875 -2.515625 -0.796875q-0.6875 -0.328125 -1.046875 -0.90625q-0.359375 -0.59375 -0.359375 -1.3125q0 -0.640625 0.296875 -1.1875q0.296875 -0.5625 0.8125 -0.921875q0.375 -0.28125 1.03125 -0.46875q0.671875 -0.203125 1.421875 -0.203125q1.140625 0 2.0 0.328125q0.859375 0.328125 1.265625 0.890625q0.421875 0.5625 0.578125 1.5l-1.609375 0.21875q-0.109375 -0.75 -0.640625 -1.171875q-0.515625 -0.421875 -1.46875 -0.421875q-1.140625 0 -1.625 0.375q-0.46875 0.375 -0.46875 0.875q0 0.3125 0.1875 0.578125q0.203125 0.265625 0.640625 0.4375q0.234375 0.09375 1.4375 0.421875q1.75 0.453125 2.4375 0.75q0.6875 0.296875 1.078125 0.859375q0.390625 0.5625 0.390625 1.40625q0 0.828125 -0.484375 1.546875q-0.46875 0.71875 -1.375 1.125q-0.90625 0.390625 -2.046875 0.390625q-1.875 0 -2.875 -0.78125q-0.984375 -0.78125 -1.25 -2.328125zm9.328125 0l1.625 -0.25q0.125 0.96875 0.75 1.5q0.625 0.515625 1.75 0.515625q1.125 0 1.671875 -0.453125q0.546875 -0.46875 0.546875 -1.09375q0 -0.546875 -0.484375 -0.875q-0.328125 -0.21875 -1.671875 -0.546875q-1.8125 -0.46875 -2.515625 -0.796875q-0.6875 -0.328125 -1.046875 -0.90625q-0.359375 -0.59375 -0.359375 -1.3125q0 -0.640625 0.296875 -1.1875q0.296875 -0.5625 0.8125 -0.921875q0.375 -0.28125 1.03125 -0.46875q0.671875 -0.203125 1.421875 -0.203125q1.140625 0 2.0 0.328125q0.859375 0.328125 1.265625 0.890625q0.421875 0.5625 0.578125 1.5l-1.609375 0.21875q-0.109375 -0.75 -0.640625 -1.171875q-0.515625 -0.421875 -1.46875 -0.421875q-1.140625 0 -1.625 0.375q-0.46875 0.375 -0.46875 0.875q0 0.3125 0.1875 0.578125q0.203125 0.265625 0.640625 0.4375q0.234375 0.09375 1.4375 0.421875q1.75 0.453125 2.4375 0.75q0.6875 0.296875 1.078125 0.859375q0.390625 0.5625 0.390625 1.40625q0 0.828125 -0.484375 1.546875q-0.46875 0.71875 -1.375 1.125q-0.90625 0.390625 -2.046875 0.390625q-1.875 0 -2.875 -0.78125q-0.984375 -0.78125 -1.25 -2.328125zm9.984375 -8.578125l0 -1.890625l1.640625 0l0 1.890625l-1.640625 0zm0 11.46875l0 -9.671875l1.640625 0l0 9.671875l-1.640625 0zm4.535431 0l0 -8.40625l-1.453125 0l0 -1.265625l1.453125 0l0 -1.03125q0 -0.96875 0.171875 -1.453125q0.234375 -0.640625 0.828125 -1.03125q0.59375 -0.390625 1.671875 -0.390625q0.6875 0 1.53125 0.15625l-0.25 1.4375q-0.5 -0.09375 -0.953125 -0.09375q-0.75 0 -1.0625 0.328125q-0.3125 0.3125 -0.3125 1.1875l0 0.890625l1.890625 0l0 1.265625l-1.890625 0l0 8.40625l-1.625 0zm4.792694 -11.46875l0 -1.890625l1.640625 0l0 1.890625l-1.640625 0zm0 11.46875l0 -9.671875l1.640625 0l0 9.671875l-1.640625 0zm10.457306 -3.546875l1.609375 0.21875q-0.265625 1.65625 -1.359375 2.609375q-1.078125 0.9375 -2.671875 0.9375q-1.984375 0 -3.1875 -1.296875q-1.203125 -1.296875 -1.203125 -3.71875q0 -1.578125 0.515625 -2.75q0.515625 -1.171875 1.578125 -1.75q1.0625 -0.59375 2.3125 -0.59375q1.578125 0 2.578125 0.796875q1.0 0.796875 1.28125 2.265625l-1.59375 0.234375q-0.234375 -0.96875 -0.8125 -1.453125q-0.578125 -0.5 -1.390625 -0.5q-1.234375 0 -2.015625 0.890625q-0.78125 0.890625 -0.78125 2.8125q0 1.953125 0.75 2.84375q0.75 0.875 1.953125 0.875q0.96875 0 1.609375 -0.59375q0.65625 -0.59375 0.828125 -1.828125zm9.328125 2.359375q-0.921875 0.765625 -1.765625 1.09375q-0.828125 0.3125 -1.796875 0.3125q-1.59375 0 -2.453125 -0.78125q-0.859375 -0.78125 -0.859375 -1.984375q0 -0.71875 0.328125 -1.296875q0.328125 -0.59375 0.84375 -0.9375q0.53125 -0.359375 1.1875 -0.546875q0.46875 -0.125 1.453125 -0.25q1.984375 -0.234375 2.921875 -0.5625q0.015625 -0.34375 0.015625 -0.421875q0 -1.0 -0.46875 -1.421875q-0.625 -0.546875 -1.875 -0.546875q-1.15625 0 -1.703125 0.40625q-0.546875 0.40625 -0.8125 1.421875l-1.609375 -0.21875q0.21875 -1.015625 0.71875 -1.640625q0.5 -0.640625 1.453125 -0.984375q0.953125 -0.34375 2.1875 -0.34375q1.25 0 2.015625 0.296875q0.78125 0.28125 1.140625 0.734375q0.375 0.4375 0.515625 1.109375q0.078125 0.421875 0.078125 1.515625l0 2.1875q0 2.28125 0.109375 2.890625q0.109375 0.59375 0.40625 1.15625l-1.703125 0q-0.265625 -0.515625 -0.328125 -1.1875zm-0.140625 -3.671875q-0.890625 0.375 -2.671875 0.625q-1.015625 0.140625 -1.4375 0.328125q-0.421875 0.1875 -0.65625 0.53125q-0.21875 0.34375 -0.21875 0.78125q0 0.65625 0.5 1.09375q0.5 0.4375 1.453125 0.4375q0.9375 0 1.671875 -0.40625q0.75 -0.421875 1.09375 -1.140625q0.265625 -0.5625 0.265625 -1.640625l0 -0.609375zm7.7819824 3.390625l0.234375 1.453125q-0.6875 0.140625 -1.234375 0.140625q-0.890625 0 -1.390625 -0.28125q-0.484375 -0.28125 -0.6875 -0.734375q-0.203125 -0.46875 -0.203125 -1.9375l0 -5.578125l-1.203125 0l0 -1.265625l1.203125 0l0 -2.390625l1.625 -0.984375l0 3.375l1.65625 0l0 1.265625l-1.65625 0l0 5.671875q0 0.6875 0.078125 0.890625q0.09375 0.203125 0.28125 0.328125q0.203125 0.109375 0.578125 0.109375q0.265625 0 0.71875 -0.0625zm1.6051636 -10.0l0 -1.890625l1.640625 0l0 1.890625l-1.640625 0zm0 11.46875l0 -9.671875l1.640625 0l0 9.671875l-1.640625 0zm3.5354614 -4.84375q0 -2.6875 1.484375 -3.96875q1.25 -1.078125 3.046875 -1.078125q2.0 0 3.265625 1.3125q1.265625 1.296875 1.265625 3.609375q0 1.859375 -0.5625 2.9375q-0.5625 1.0625 -1.640625 1.65625q-1.0625 0.59375 -2.328125 0.59375q-2.03125 0 -3.28125 -1.296875q-1.25 -1.3125 -1.25 -3.765625zm1.6875 0q0 1.859375 0.796875 2.796875q0.8125 0.921875 2.046875 0.921875q1.21875 0 2.03125 -0.921875q0.8125 -0.9375 0.8125 -2.84375q0 -1.796875 -0.8125 -2.71875q-0.8125 -0.921875 -2.03125 -0.921875q-1.234375 0 -2.046875 0.921875q-0.796875 0.90625 -0.796875 2.765625zm9.297577 4.84375l0 -9.671875l1.46875 0l0 1.375q1.0625 -1.59375 3.078125 -1.59375q0.875 0 1.609375 0.3125q0.734375 0.3125 1.09375 0.828125q0.375 0.5 0.515625 1.203125q0.09375 0.453125 0.09375 1.59375l0 5.953125l-1.640625 0l0 -5.890625q0 -1.0 -0.203125 -1.484375q-0.1875 -0.5 -0.671875 -0.796875q-0.484375 -0.296875 -1.140625 -0.296875q-1.046875 0 -1.8125 0.671875q-0.75 0.65625 -0.75 2.515625l0 5.28125l-1.640625 0z" fill-rule="nonzero"/><path fill="#000000" fill-opacity="0.0" d="m428.45676 272.48032l189.70078 0l0 42.015747l-189.70078 0z" fill-rule="evenodd"/><path fill="#000000" d="m447.6186 299.4003l0 -11.78125l-4.40625 0l0 -1.578125l10.578125 0l0 1.578125l-4.40625 0l0 11.78125l-1.765625 0zm13.422028 0l0 -1.421875q-1.125 1.640625 -3.0625 1.640625q-0.859375 0 -1.609375 -0.328125q-0.734375 -0.328125 -1.09375 -0.828125q-0.359375 -0.5 -0.5 -1.21875q-0.109375 -0.46875 -0.109375 -1.53125l0 -5.984375l1.640625 0l0 5.359375q0 1.28125 0.109375 1.734375q0.15625 0.640625 0.65625 1.015625q0.5 0.375 1.234375 0.375q0.734375 0 1.375 -0.375q0.65625 -0.390625 0.921875 -1.03125q0.265625 -0.65625 0.265625 -1.890625l0 -5.1875l1.640625 0l0 9.671875l-1.46875 0zm4.047577 3.703125l0 -13.375l1.484375 0l0 1.25q0.53125 -0.734375 1.1875 -1.09375q0.671875 -0.375 1.625 -0.375q1.234375 0 2.171875 0.640625q0.953125 0.625 1.4375 1.796875q0.484375 1.15625 0.484375 2.546875q0 1.484375 -0.53125 2.671875q-0.53125 1.1875 -1.546875 1.828125q-1.015625 0.625 -2.140625 0.625q-0.8125 0 -1.46875 -0.34375q-0.65625 -0.34375 -1.0625 -0.875l0 4.703125l-1.640625 0zm1.484375 -8.484375q0 1.859375 0.75 2.765625q0.765625 0.890625 1.828125 0.890625q1.09375 0 1.875 -0.921875q0.78125 -0.9375 0.78125 -2.875q0 -1.84375 -0.765625 -2.765625q-0.75 -0.921875 -1.8125 -0.921875q-1.046875 0 -1.859375 0.984375q-0.796875 0.96875 -0.796875 2.84375zm8.844482 4.78125l0 -13.359375l1.640625 0l0 13.359375l-1.640625 0zm10.816681 -3.109375l1.6875 0.203125q-0.40625 1.484375 -1.484375 2.3125q-1.078125 0.8125 -2.765625 0.8125q-2.125 0 -3.375 -1.296875q-1.234375 -1.3125 -1.234375 -3.671875q0 -2.453125 1.25 -3.796875q1.265625 -1.34375 3.265625 -1.34375q1.9375 0 3.15625 1.328125q1.234375 1.3125 1.234375 3.703125q0 0.15625 0 0.4375l-7.21875 0q0.09375 1.59375 0.90625 2.453125q0.8125 0.84375 2.015625 0.84375q0.90625 0 1.546875 -0.46875q0.640625 -0.484375 1.015625 -1.515625zm-5.390625 -2.65625l5.40625 0q-0.109375 -1.21875 -0.625 -1.828125q-0.78125 -0.953125 -2.03125 -0.953125q-1.125 0 -1.90625 0.765625q-0.765625 0.75 -0.84375 2.015625zm24.059021 1.078125l1.765625 0.453125q-0.5625 2.171875 -2.0 3.328125q-1.4375 1.140625 -3.53125 1.140625q-2.15625 0 -3.515625 -0.875q-1.34375 -0.890625 -2.0625 -2.546875q-0.703125 -1.671875 -0.703125 -3.59375q0 -2.078125 0.796875 -3.625q0.796875 -1.5625 2.265625 -2.359375q1.484375 -0.8125 3.25 -0.8125q2.0 0 3.359375 1.015625q1.375 1.015625 1.90625 2.875l-1.734375 0.40625q-0.46875 -1.453125 -1.359375 -2.109375q-0.875 -0.671875 -2.203125 -0.671875q-1.546875 0 -2.578125 0.734375q-1.03125 0.734375 -1.453125 1.984375q-0.421875 1.234375 -0.421875 2.5625q0 1.703125 0.5 2.96875q0.5 1.265625 1.546875 1.90625q1.046875 0.625 2.265625 0.625q1.484375 0 2.515625 -0.859375q1.03125 -0.859375 1.390625 -2.546875zm3.6917114 4.6875l0 -13.359375l1.640625 0l0 13.359375l-1.640625 0zm10.504181 -1.1875q-0.921875 0.765625 -1.765625 1.09375q-0.828125 0.3125 -1.796875 0.3125q-1.59375 0 -2.453125 -0.78125q-0.859375 -0.78125 -0.859375 -1.984375q0 -0.71875 0.328125 -1.296875q0.328125 -0.59375 0.84375 -0.9375q0.53125 -0.359375 1.1875 -0.546875q0.46875 -0.125 1.453125 -0.25q1.984375 -0.234375 2.921875 -0.5625q0.015625 -0.34375 0.015625 -0.421875q0 -1.0 -0.46875 -1.421875q-0.625 -0.546875 -1.875 -0.546875q-1.15625 0 -1.703125 0.40625q-0.546875 0.40625 -0.8125 1.421875l-1.609375 -0.21875q0.21875 -1.015625 0.71875 -1.640625q0.5 -0.640625 1.453125 -0.984375q0.953125 -0.34375 2.1875 -0.34375q1.25 0 2.015625 0.296875q0.78125 0.28125 1.140625 0.734375q0.375 0.4375 0.515625 1.109375q0.078125 0.421875 0.078125 1.515625l0 2.1875q0 2.28125 0.109375 2.890625q0.109375 0.59375 0.40625 1.15625l-1.703125 0q-0.265625 -0.515625 -0.328125 -1.1875zm-0.140625 -3.671875q-0.890625 0.375 -2.671875 0.625q-1.015625 0.140625 -1.4375 0.328125q-0.421875 0.1875 -0.65625 0.53125q-0.21875 0.34375 -0.21875 0.78125q0 0.65625 0.5 1.09375q0.5 0.4375 1.453125 0.4375q0.9375 0 1.671875 -0.40625q0.75 -0.421875 1.09375 -1.140625q0.265625 -0.5625 0.265625 -1.640625l0 -0.609375zm3.5476074 1.96875l1.625 -0.25q0.125 0.96875 0.75 1.5q0.625 0.515625 1.75 0.515625q1.125 0 1.671875 -0.453125q0.546875 -0.46875 0.546875 -1.09375q0 -0.546875 -0.484375 -0.875q-0.328125 -0.21875 -1.671875 -0.546875q-1.8125 -0.46875 -2.515625 -0.796875q-0.6875 -0.328125 -1.046875 -0.90625q-0.359375 -0.59375 -0.359375 -1.3125q0 -0.640625 0.296875 -1.1875q0.296875 -0.5625 0.8125 -0.921875q0.375 -0.28125 1.03125 -0.46875q0.671875 -0.203125 1.421875 -0.203125q1.140625 0 2.0 0.328125q0.859375 0.328125 1.265625 0.890625q0.421875 0.5625 0.578125 1.5l-1.609375 0.21875q-0.109375 -0.75 -0.640625 -1.171875q-0.515625 -0.421875 -1.46875 -0.421875q-1.140625 0 -1.625 0.375q-0.46875 0.375 -0.46875 0.875q0 0.3125 0.1875 0.578125q0.203125 0.265625 0.640625 0.4375q0.234375 0.09375 1.4375 0.421875q1.75 0.453125 2.4375 0.75q0.6875 0.296875 1.078125 0.859375q0.390625 0.5625 0.390625 1.40625q0 0.828125 -0.484375 1.546875q-0.46875 0.71875 -1.375 1.125q-0.90625 0.390625 -2.046875 0.390625q-1.875 0 -2.875 -0.78125q-0.984375 -0.78125 -1.25 -2.328125zm9.328125 0l1.625 -0.25q0.125 0.96875 0.75 1.5q0.625 0.515625 1.75 0.515625q1.125 0 1.671875 -0.453125q0.546875 -0.46875 0.546875 -1.09375q0 -0.546875 -0.484375 -0.875q-0.328125 -0.21875 -1.671875 -0.546875q-1.8125 -0.46875 -2.515625 -0.796875q-0.6875 -0.328125 -1.046875 -0.90625q-0.359375 -0.59375 -0.359375 -1.3125q0 -0.640625 0.296875 -1.1875q0.296875 -0.5625 0.8125 -0.921875q0.375 -0.28125 1.03125 -0.46875q0.671875 -0.203125 1.421875 -0.203125q1.140625 0 2.0 0.328125q0.859375 0.328125 1.265625 0.890625q0.421875 0.5625 0.578125 1.5l-1.609375 0.21875q-0.109375 -0.75 -0.640625 -1.171875q-0.515625 -0.421875 -1.46875 -0.421875q-1.140625 0 -1.625 0.375q-0.46875 0.375 -0.46875 0.875q0 0.3125 0.1875 0.578125q0.203125 0.265625 0.640625 0.4375q0.234375 0.09375 1.4375 0.421875q1.75 0.453125 2.4375 0.75q0.6875 0.296875 1.078125 0.859375q0.390625 0.5625 0.390625 1.40625q0 0.828125 -0.484375 1.546875q-0.46875 0.71875 -1.375 1.125q-0.90625 0.390625 -2.046875 0.390625q-1.875 0 -2.875 -0.78125q-0.984375 -0.78125 -1.25 -2.328125zm9.984375 -8.578125l0 -1.890625l1.640625 0l0 1.890625l-1.640625 0zm0 11.46875l0 -9.671875l1.640625 0l0 9.671875l-1.640625 0zm4.5354614 0l0 -8.40625l-1.453125 0l0 -1.265625l1.453125 0l0 -1.03125q0 -0.96875 0.171875 -1.453125q0.234375 -0.640625 0.828125 -1.03125q0.59375 -0.390625 1.671875 -0.390625q0.6875 0 1.53125 0.15625l-0.25 1.4375q-0.5 -0.09375 -0.953125 -0.09375q-0.75 0 -1.0625 0.328125q-0.3125 0.3125 -0.3125 1.1875l0 0.890625l1.890625 0l0 1.265625l-1.890625 0l0 8.40625l-1.625 0zm4.7926636 -11.46875l0 -1.890625l1.640625 0l0 1.890625l-1.640625 0zm0 11.46875l0 -9.671875l1.640625 0l0 9.671875l-1.640625 0zm10.457275 -3.546875l1.609375 0.21875q-0.265625 1.65625 -1.359375 2.609375q-1.078125 0.9375 -2.671875 0.9375q-1.984375 0 -3.187439 -1.296875q-1.203125 -1.296875 -1.203125 -3.71875q0 -1.578125 0.515625 -2.75q0.515625 -1.171875 1.578064 -1.75q1.0625 -0.59375 2.3125 -0.59375q1.578125 0 2.578125 0.796875q1.0 0.796875 1.28125 2.265625l-1.59375 0.234375q-0.234375 -0.96875 -0.8125 -1.453125q-0.578125 -0.5 -1.390625 -0.5q-1.234375 0 -2.015625 0.890625q-0.78125 0.890625 -0.78125 2.8125q0 1.953125 0.75 2.84375q0.75 0.875 1.953125 0.875q0.96875 0 1.609375 -0.59375q0.65625 -0.59375 0.828125 -1.828125zm9.328125 2.359375q-0.921875 0.765625 -1.765625 1.09375q-0.828125 0.3125 -1.796875 0.3125q-1.59375 0 -2.453125 -0.78125q-0.859375 -0.78125 -0.859375 -1.984375q0 -0.71875 0.328125 -1.296875q0.328125 -0.59375 0.84375 -0.9375q0.53125 -0.359375 1.1875 -0.546875q0.46875 -0.125 1.453125 -0.25q1.984375 -0.234375 2.921875 -0.5625q0.015625 -0.34375 0.015625 -0.421875q0 -1.0 -0.46875 -1.421875q-0.625 -0.546875 -1.875 -0.546875q-1.15625 0 -1.703125 0.40625q-0.546875 0.40625 -0.8125 1.421875l-1.609375 -0.21875q0.21875 -1.015625 0.71875 -1.640625q0.5 -0.640625 1.453125 -0.984375q0.953125 -0.34375 2.1875 -0.34375q1.25 0 2.015625 0.296875q0.78125 0.28125 1.140625 0.734375q0.375 0.4375 0.515625 1.109375q0.078125 0.421875 0.078125 1.515625l0 2.1875q0 2.28125 0.109375 2.890625q0.109375 0.59375 0.40625 1.15625l-1.703125 0q-0.265625 -0.515625 -0.328125 -1.1875zm-0.140625 -3.671875q-0.890625 0.375 -2.671875 0.625q-1.015625 0.140625 -1.4375 0.328125q-0.421875 0.1875 -0.65625 0.53125q-0.21875 0.34375 -0.21875 0.78125q0 0.65625 0.5 1.09375q0.5 0.4375 1.453125 0.4375q0.9375 0 1.671875 -0.40625q0.75 -0.421875 1.09375 -1.140625q0.265625 -0.5625 0.265625 -1.640625l0 -0.609375zm7.7819824 3.390625l0.234375 1.453125q-0.6875 0.140625 -1.234375 0.140625q-0.890625 0 -1.390625 -0.28125q-0.484375 -0.28125 -0.6875 -0.734375q-0.203125 -0.46875 -0.203125 -1.9375l0 -5.578125l-1.203125 0l0 -1.265625l1.203125 0l0 -2.390625l1.625 -0.984375l0 3.375l1.65625 0l0 1.265625l-1.65625 0l0 5.671875q0 0.6875 0.078125 0.890625q0.09375 0.203125 0.28125 0.328125q0.203125 0.109375 0.578125 0.109375q0.265625 0 0.71875 -0.0625zm1.6051636 -10.0l0 -1.890625l1.640625 0l0 1.890625l-1.640625 0zm0 11.46875l0 -9.671875l1.640625 0l0 9.671875l-1.640625 0zm3.5354614 -4.84375q0 -2.6875 1.484375 -3.96875q1.25 -1.078125 3.046875 -1.078125q2.0 0 3.265625 1.3125q1.265625 1.296875 1.265625 3.609375q0 1.859375 -0.5625 2.9375q-0.5625 1.0625 -1.640625 1.65625q-1.0625 0.59375 -2.328125 0.59375q-2.03125 0 -3.28125 -1.296875q-1.25 -1.3125 -1.25 -3.765625zm1.6875 0q0 1.859375 0.796875 2.796875q0.8125 0.921875 2.046875 0.921875q1.21875 0 2.03125 -0.921875q0.8125 -0.9375 0.8125 -2.84375q0 -1.796875 -0.8125 -2.71875q-0.8125 -0.921875 -2.03125 -0.921875q-1.234375 0 -2.046875 0.921875q-0.796875 0.90625 -0.796875 2.765625zm9.297607 4.84375l0 -9.671875l1.46875 0l0 1.375q1.0625 -1.59375 3.078125 -1.59375q0.875 0 1.609375 0.3125q0.734375 0.3125 1.09375 0.828125q0.375 0.5 0.515625 1.203125q0.09375 0.453125 0.09375 1.59375l0 5.953125l-1.640625 0l0 -5.890625q0 -1.0 -0.203125 -1.484375q-0.1875 -0.5 -0.671875 -0.796875q-0.484375 -0.296875 -1.140625 -0.296875q-1.046875 0 -1.8125 0.671875q-0.75 0.65625 -0.75 2.515625l0 5.28125l-1.640625 0z" fill-rule="nonzero"/><path fill="#000000" fill-opacity="0.0" d="m6.8031497 314.49606l176.0945 0l0 37.165344l-176.0945 0z" fill-rule="evenodd"/><path fill="#000000" d="m25.73618 329.31042l-2.765625 0l0 8.265625l-1.28125 0l0 -8.265625l-2.78125 0l0 -1.09375l6.828125 0l0 1.09375zm8.026825 4.609375q0 0.84375 -0.25 1.546875q-0.234375 0.6875 -0.671875 1.1875q-0.4375 0.5 -1.078125 0.78125q-0.640625 0.265625 -1.453125 0.265625q-0.765625 0 -1.390625 -0.234375q-0.609375 -0.234375 -1.03125 -0.703125q-0.421875 -0.46875 -0.65625 -1.15625q-0.21875 -0.6875 -0.21875 -1.578125q0 -0.84375 0.234375 -1.53125q0.234375 -0.6875 0.671875 -1.1875q0.453125 -0.5 1.09375 -0.765625q0.640625 -0.28125 1.4375 -0.28125q0.78125 0 1.390625 0.25q0.609375 0.234375 1.03125 0.703125q0.4375 0.453125 0.65625 1.140625q0.234375 0.6875 0.234375 1.5625zm-1.28125 0.0625q0 -0.671875 -0.15625 -1.15625q-0.140625 -0.5 -0.421875 -0.828125q-0.265625 -0.34375 -0.65625 -0.5q-0.375 -0.171875 -0.859375 -0.171875q-0.5625 0 -0.96875 0.21875q-0.390625 0.21875 -0.640625 0.578125q-0.25 0.359375 -0.375 0.84375q-0.109375 0.484375 -0.109375 1.015625q0 0.671875 0.140625 1.171875q0.140625 0.5 0.40625 0.828125q0.28125 0.328125 0.671875 0.5q0.390625 0.171875 0.875 0.171875q0.5625 0 0.953125 -0.21875q0.390625 -0.21875 0.640625 -0.578125q0.265625 -0.375 0.375 -0.859375q0.125 -0.484375 0.125 -1.015625zm9.214325 -0.125q0 0.953125 -0.265625 1.671875q-0.265625 0.71875 -0.75 1.1875q-0.46875 0.46875 -1.109375 0.703125q-0.640625 0.234375 -1.390625 0.234375q-0.34375 0 -0.6875 -0.03125q-0.34375 -0.03125 -0.6875 -0.125l0 3.015625l-1.25 0l0 -10.125l1.109375 0l0.078125 1.203125q0.546875 -0.734375 1.15625 -1.03125q0.609375 -0.296875 1.3125 -0.296875q0.609375 0 1.078125 0.265625q0.46875 0.25 0.78125 0.71875q0.3125 0.46875 0.46875 1.140625q0.15625 0.65625 0.15625 1.46875zm-1.265625 0.046875q0 -0.5625 -0.09375 -1.03125q-0.078125 -0.46875 -0.265625 -0.796875q-0.171875 -0.34375 -0.453125 -0.53125q-0.265625 -0.1875 -0.65625 -0.1875q-0.234375 0 -0.484375 0.078125q-0.234375 0.0625 -0.5 0.25q-0.265625 0.171875 -0.5625 0.46875q-0.28125 0.28125 -0.609375 0.703125l0 3.484375q0.34375 0.140625 0.71875 0.234375q0.390625 0.078125 0.75 0.078125q1.0 0 1.578125 -0.6875q0.578125 -0.6875 0.578125 -2.0625zm5.6362 -2.484375l-2.125 0l0 -1.03125l3.390625 0l0 6.15625l2.125 0l0 1.03125l-5.75 0l0 -1.03125l2.359375 0l0 -5.125zm0.4375 -4.046875q0.203125 0 0.375 0.078125q0.1875 0.078125 0.3125 0.21875q0.140625 0.125 0.21875 0.3125q0.078125 0.171875 0.078125 0.375q0 0.203125 -0.078125 0.390625q-0.078125 0.171875 -0.21875 0.3125q-0.125 0.125 -0.3125 0.203125q-0.171875 0.078125 -0.375 0.078125q-0.203125 0 -0.390625 -0.078125q-0.171875 -0.078125 -0.3125 -0.203125q-0.125 -0.140625 -0.203125 -0.3125q-0.078125 -0.1875 -0.078125 -0.390625q0 -0.203125 0.078125 -0.375q0.078125 -0.1875 0.203125 -0.3125q0.140625 -0.140625 0.3125 -0.21875q0.1875 -0.078125 0.390625 -0.078125zm10.7612 9.9375q-0.5 0.1875 -1.015625 0.265625q-0.5 0.09375 -1.046875 0.09375q-1.703125 0 -2.625 -0.921875q-0.921875 -0.921875 -0.921875 -2.6875q0 -0.859375 0.265625 -1.546875q0.265625 -0.703125 0.75 -1.1875q0.484375 -0.5 1.140625 -0.765625q0.671875 -0.265625 1.46875 -0.265625q0.5625 0 1.046875 0.078125q0.484375 0.078125 0.9375 0.25l0 1.1875q-0.46875 -0.234375 -0.953125 -0.34375q-0.484375 -0.109375 -1.0 -0.109375q-0.484375 0 -0.90625 0.1875q-0.421875 0.171875 -0.75 0.515625q-0.3125 0.34375 -0.5 0.84375q-0.1875 0.484375 -0.1875 1.109375q0 1.296875 0.625 1.953125q0.640625 0.640625 1.765625 0.640625q0.5 0 0.96875 -0.109375q0.484375 -0.109375 0.9375 -0.34375l0 1.15625zm15.147396 0.265625l-0.03125 -0.96875q-0.59375 0.578125 -1.203125 0.84375q-0.59375 0.25 -1.265625 0.25q-0.609375 0 -1.046875 -0.15625q-0.4375 -0.15625 -0.71875 -0.421875q-0.28125 -0.28125 -0.421875 -0.65625q-0.125 -0.375 -0.125 -0.8125q0 -1.078125 0.796875 -1.6875q0.8125 -0.609375 2.390625 -0.609375l1.484375 0l0 -0.640625q0 -0.625 -0.40625 -1.0q-0.40625 -0.390625 -1.25 -0.390625q-0.609375 0 -1.203125 0.140625q-0.578125 0.125 -1.21875 0.375l0 -1.125q0.25 -0.078125 0.53125 -0.15625q0.296875 -0.09375 0.609375 -0.15625q0.328125 -0.0625 0.671875 -0.09375q0.359375 -0.046875 0.71875 -0.046875q0.640625 0 1.15625 0.140625q0.53125 0.140625 0.890625 0.4375q0.359375 0.296875 0.546875 0.75q0.203125 0.4375 0.203125 1.03125l0 4.953125l-1.109375 0zm-0.140625 -3.265625l-1.578125 0q-0.46875 0 -0.8125 0.09375q-0.328125 0.09375 -0.546875 0.265625q-0.21875 0.171875 -0.328125 0.40625q-0.09375 0.234375 -0.09375 0.546875q0 0.203125 0.0625 0.390625q0.0625 0.1875 0.203125 0.34375q0.15625 0.140625 0.375 0.234375q0.234375 0.078125 0.5625 0.078125q0.4375 0 0.984375 -0.265625q0.5625 -0.265625 1.171875 -0.828125l0 -1.265625zm9.714325 -0.453125q0 0.890625 -0.25 1.59375q-0.234375 0.703125 -0.703125 1.203125q-0.453125 0.484375 -1.109375 0.75q-0.640625 0.25 -1.453125 0.25q-0.640625 0 -1.3125 -0.109375q-0.65625 -0.125 -1.3125 -0.390625l0 -9.6875l1.25 0l0 2.78125l-0.0625 1.328125q0.546875 -0.71875 1.15625 -1.015625q0.609375 -0.296875 1.3125 -0.296875q0.609375 0 1.078125 0.265625q0.46875 0.25 0.78125 0.71875q0.3125 0.46875 0.46875 1.140625q0.15625 0.65625 0.15625 1.46875zm-1.265625 0.046875q0 -0.5625 -0.09375 -1.03125q-0.078125 -0.46875 -0.265625 -0.796875q-0.171875 -0.34375 -0.453125 -0.53125q-0.265625 -0.1875 -0.65625 -0.1875q-0.234375 0 -0.484375 0.078125q-0.234375 0.0625 -0.5 0.25q-0.265625 0.171875 -0.5625 0.46875q-0.28125 0.28125 -0.609375 0.703125l0 3.484375q0.359375 0.140625 0.734375 0.234375q0.390625 0.078125 0.734375 0.078125q0.421875 0 0.8125 -0.125q0.390625 -0.140625 0.6875 -0.453125q0.296875 -0.328125 0.46875 -0.859375q0.1875 -0.53125 0.1875 -1.3125zm9.4487 0.015625q0 0.84375 -0.25 1.546875q-0.234375 0.6875 -0.671875 1.1875q-0.4375 0.5 -1.078125 0.78125q-0.640625 0.265625 -1.453125 0.265625q-0.765625 0 -1.390625 -0.234375q-0.609375 -0.234375 -1.03125 -0.703125q-0.421875 -0.46875 -0.65625 -1.15625q-0.21875 -0.6875 -0.21875 -1.578125q0 -0.84375 0.234375 -1.53125q0.234375 -0.6875 0.671875 -1.1875q0.453125 -0.5 1.09375 -0.765625q0.640625 -0.28125 1.4375 -0.28125q0.78125 0 1.390625 0.25q0.609375 0.234375 1.03125 0.703125q0.4375 0.453125 0.65625 1.140625q0.234375 0.6875 0.234375 1.5625zm-1.28125 0.0625q0 -0.671875 -0.15625 -1.15625q-0.140625 -0.5 -0.421875 -0.828125q-0.265625 -0.34375 -0.65625 -0.5q-0.375 -0.171875 -0.859375 -0.171875q-0.5625 0 -0.96875 0.21875q-0.390625 0.21875 -0.640625 0.578125q-0.25 0.359375 -0.375 0.84375q-0.109375 0.484375 -0.109375 1.015625q0 0.671875 0.140625 1.171875q0.140625 0.5 0.40625 0.828125q0.28125 0.328125 0.671875 0.5q0.390625 0.171875 0.875 0.171875q0.5625 0 0.953125 -0.21875q0.390625 -0.21875 0.640625 -0.578125q0.265625 -0.375 0.375 -0.859375q0.125 -0.484375 0.125 -1.015625zm8.85495 3.59375l-1.125 0l-0.03125 -1.15625q-0.328125 0.375 -0.625 0.625q-0.28125 0.234375 -0.578125 0.390625q-0.28125 0.140625 -0.578125 0.203125q-0.28125 0.0625 -0.59375 0.0625q-1.109375 0 -1.6875 -0.640625q-0.5625 -0.65625 -0.5625 -1.96875l0 -4.703125l1.25 0l0 4.59375q0 1.65625 1.25 1.65625q0.21875 0 0.4375 -0.0625q0.21875 -0.078125 0.453125 -0.234375q0.25 -0.171875 0.515625 -0.453125q0.28125 -0.296875 0.625 -0.734375l0 -4.765625l1.25 0l0 7.1875zm8.0737 -0.09375q-0.421875 0.09375 -0.875 0.140625q-0.453125 0.046875 -0.921875 0.046875q-1.34375 0 -2.015625 -0.609375q-0.65625 -0.609375 -0.65625 -1.875l0 -3.75l-2.015625 0l0 -1.046875l2.015625 0l0 -1.96875l1.234375 -0.328125l0 2.296875l3.234375 0l0 1.046875l-3.234375 0l0 3.65625q0 0.765625 0.40625 1.15625q0.421875 0.375 1.21875 0.375q0.34375 0 0.75 -0.046875q0.40625 -0.0625 0.859375 -0.171875l0 1.078125zm16.319275 -2.4375q0 0.65625 -0.28125 1.171875q-0.265625 0.5 -0.75 0.828125q-0.484375 0.328125 -1.171875 0.5q-0.6875 0.15625 -1.515625 0.15625q-0.359375 0 -0.734375 -0.03125q-0.375 -0.015625 -0.71875 -0.0625q-0.328125 -0.046875 -0.640625 -0.09375q-0.296875 -0.0625 -0.53125 -0.125l0 -1.234375q0.53125 0.203125 1.203125 0.3125q0.671875 0.109375 1.515625 0.109375q0.625 0 1.046875 -0.09375q0.4375 -0.09375 0.703125 -0.28125q0.28125 -0.1875 0.40625 -0.453125q0.125 -0.28125 0.125 -0.640625q0 -0.375 -0.21875 -0.640625q-0.203125 -0.265625 -0.546875 -0.46875q-0.34375 -0.21875 -0.78125 -0.390625q-0.4375 -0.1875 -0.90625 -0.359375q-0.453125 -0.1875 -0.890625 -0.40625q-0.4375 -0.21875 -0.78125 -0.515625q-0.34375 -0.296875 -0.5625 -0.703125q-0.203125 -0.40625 -0.203125 -0.953125q0 -0.484375 0.203125 -0.9375q0.203125 -0.46875 0.625 -0.828125q0.421875 -0.359375 1.078125 -0.578125q0.671875 -0.234375 1.578125 -0.234375q0.234375 0 0.515625 0.03125q0.28125 0.015625 0.5625 0.0625q0.28125 0.03125 0.546875 0.078125q0.28125 0.046875 0.515625 0.109375l0 1.140625q-0.546875 -0.15625 -1.109375 -0.234375q-0.546875 -0.078125 -1.0625 -0.078125q-1.09375 0 -1.609375 0.359375q-0.515625 0.359375 -0.515625 0.984375q0 0.375 0.203125 0.65625q0.21875 0.265625 0.5625 0.484375q0.34375 0.203125 0.78125 0.390625q0.453125 0.171875 0.90625 0.359375q0.453125 0.1875 0.890625 0.40625q0.453125 0.21875 0.796875 0.53125q0.34375 0.296875 0.546875 0.703125q0.21875 0.40625 0.21875 0.96875zm8.1987 -1.1875q0 0.953125 -0.265625 1.671875q-0.265625 0.71875 -0.75 1.1875q-0.46875 0.46875 -1.109375 0.703125q-0.640625 0.234375 -1.390625 0.234375q-0.34375 0 -0.6875 -0.03125q-0.34375 -0.03125 -0.6875 -0.125l0 3.015625l-1.25 0l0 -10.125l1.109375 0l0.078125 1.203125q0.546875 -0.734375 1.15625 -1.03125q0.609375 -0.296875 1.3125 -0.296875q0.609375 0 1.078125 0.265625q0.46875 0.25 0.78125 0.71875q0.3125 0.46875 0.46875 1.140625q0.15625 0.65625 0.15625 1.46875zm-1.265625 0.046875q0 -0.5625 -0.09375 -1.03125q-0.078125 -0.46875 -0.265625 -0.796875q-0.171875 -0.34375 -0.453125 -0.53125q-0.265625 -0.1875 -0.65625 -0.1875q-0.234375 0 -0.484375 0.078125q-0.234375 0.0625 -0.5 0.25q-0.265625 0.171875 -0.5625 0.46875q-0.28125 0.28125 -0.609375 0.703125l0 3.484375q0.34375 0.140625 0.71875 0.234375q0.390625 0.078125 0.75 0.078125q1.0 0 1.578125 -0.6875q0.578125 -0.6875 0.578125 -2.0625zm9.4487 0.015625q0 0.84375 -0.25 1.546875q-0.234375 0.6875 -0.671875 1.1875q-0.4375 0.5 -1.078125 0.78125q-0.640625 0.265625 -1.453125 0.265625q-0.765625 0 -1.390625 -0.234375q-0.609375 -0.234375 -1.03125 -0.703125q-0.421875 -0.46875 -0.65625 -1.15625q-0.21875 -0.6875 -0.21875 -1.578125q0 -0.84375 0.234375 -1.53125q0.234375 -0.6875 0.671875 -1.1875q0.453125 -0.5 1.09375 -0.765625q0.640625 -0.28125 1.4375 -0.28125q0.78125 0 1.390625 0.25q0.609375 0.234375 1.03125 0.703125q0.4375 0.453125 0.65625 1.140625q0.234375 0.6875 0.234375 1.5625zm-1.28125 0.0625q0 -0.671875 -0.15625 -1.15625q-0.140625 -0.5 -0.421875 -0.828125q-0.265625 -0.34375 -0.65625 -0.5q-0.375 -0.171875 -0.859375 -0.171875q-0.5625 0 -0.96875 0.21875q-0.390625 0.21875 -0.640625 0.578125q-0.25 0.359375 -0.375 0.84375q-0.109375 0.484375 -0.109375 1.015625q0 0.671875 0.140625 1.171875q0.140625 0.5 0.40625 0.828125q0.28125 0.328125 0.671875 0.5q0.390625 0.171875 0.875 0.171875q0.5625 0 0.953125 -0.21875q0.390625 -0.21875 0.640625 -0.578125q0.265625 -0.375 0.375 -0.859375q0.125 -0.484375 0.125 -1.015625zm3.370575 -3.59375l1.140625 0l0.03125 1.328125q0.640625 -0.765625 1.25 -1.109375q0.625 -0.34375 1.25 -0.34375q1.125 0 1.703125 0.71875q0.578125 0.71875 0.53125 2.15625l-1.265625 0q0.03125 -0.953125 -0.265625 -1.375q-0.296875 -0.421875 -0.875 -0.421875q-0.25 0 -0.515625 0.09375q-0.25 0.078125 -0.515625 0.28125q-0.265625 0.1875 -0.5625 0.5q-0.296875 0.3125 -0.640625 0.75l0 4.609375l-1.265625 0l0 -7.1875zm13.558075 7.09375q-0.421875 0.09375 -0.875 0.140625q-0.453125 0.046875 -0.921875 0.046875q-1.34375 0 -2.015625 -0.609375q-0.65625 -0.609375 -0.65625 -1.875l0 -3.75l-2.015625 0l0 -1.046875l2.015625 0l0 -1.96875l1.234375 -0.328125l0 2.296875l3.234375 0l0 1.046875l-3.234375 0l0 3.65625q0 0.765625 0.40625 1.15625q0.421875 0.375 1.21875 0.375q0.34375 0 0.75 -0.046875q0.40625 -0.0625 0.859375 -0.171875l0 1.078125zm7.9487 -1.859375q0 0.375 -0.125 0.671875q-0.125 0.296875 -0.34375 0.53125q-0.21875 0.234375 -0.515625 0.40625q-0.296875 0.15625 -0.640625 0.265625q-0.328125 0.109375 -0.6875 0.15625q-0.34375 0.046875 -0.671875 0.046875q-0.734375 0 -1.34375 -0.0625q-0.609375 -0.0625 -1.203125 -0.203125l0 -1.140625q0.640625 0.171875 1.25 0.265625q0.625 0.09375 1.25 0.09375q0.890625 0 1.3125 -0.234375q0.4375 -0.25 0.4375 -0.703125q0 -0.1875 -0.078125 -0.34375q-0.0625 -0.15625 -0.25 -0.296875q-0.171875 -0.140625 -0.546875 -0.28125q-0.375 -0.15625 -1.015625 -0.359375q-0.5 -0.140625 -0.90625 -0.3125q-0.40625 -0.1875 -0.71875 -0.4375q-0.296875 -0.25 -0.46875 -0.578125q-0.171875 -0.34375 -0.171875 -0.8125q0 -0.296875 0.140625 -0.65625q0.140625 -0.359375 0.46875 -0.65625q0.34375 -0.3125 0.921875 -0.515625q0.578125 -0.203125 1.421875 -0.203125q0.421875 0 0.9375 0.046875q0.515625 0.046875 1.078125 0.15625l0 1.109375q-0.578125 -0.140625 -1.109375 -0.203125q-0.53125 -0.078125 -0.90625 -0.078125q-0.46875 0 -0.796875 0.078125q-0.3125 0.0625 -0.515625 0.203125q-0.1875 0.125 -0.28125 0.296875q-0.078125 0.15625 -0.078125 0.34375q0 0.203125 0.0625 0.359375q0.078125 0.15625 0.28125 0.3125q0.21875 0.140625 0.578125 0.28125q0.359375 0.140625 0.953125 0.3125q0.640625 0.1875 1.0625 0.390625q0.4375 0.203125 0.703125 0.46875q0.28125 0.25 0.390625 0.5625q0.125 0.3125 0.125 0.71875zm5.1987 -0.296875q0.25 0 0.46875 0.09375q0.21875 0.09375 0.375 0.265625q0.15625 0.15625 0.25 0.375q0.09375 0.21875 0.09375 0.46875q0 0.234375 -0.09375 0.453125q-0.09375 0.21875 -0.25 0.375q-0.15625 0.15625 -0.375 0.25q-0.21875 0.09375 -0.46875 0.09375q-0.25 0 -0.46875 -0.09375q-0.203125 -0.09375 -0.375 -0.25q-0.15625 -0.15625 -0.25 -0.375q-0.09375 -0.21875 -0.09375 -0.453125q0 -0.25 0.09375 -0.46875q0.09375 -0.21875 0.25 -0.375q0.171875 -0.171875 0.375 -0.265625q0.21875 -0.09375 0.46875 -0.09375z" fill-rule="nonzero"/><path fill="#000000" fill-opacity="0.0" d="m221.0315 314.49606l176.09448 0l0 37.165344l-176.09448 0z" fill-rule="evenodd"/><path fill="#45818e" d="m251.03601 340.51355l-0.53125 0q-1.375 0 -2.0625 -0.65625q-0.671875 -0.640625 -0.671875 -1.953125l0 -2.46875q0 -0.34375 -0.078125 -0.625q-0.078125 -0.28125 -0.28125 -0.46875q-0.1875 -0.1875 -0.515625 -0.28125q-0.328125 -0.109375 -0.8125 -0.109375l-0.3125 0l0 -0.984375l0.3125 0q0.515625 0 0.84375 -0.078125q0.328125 -0.09375 0.515625 -0.265625q0.1875 -0.1875 0.25 -0.453125q0.078125 -0.28125 0.078125 -0.640625l0 -1.703125q0 -0.59375 0.140625 -1.078125q0.15625 -0.484375 0.46875 -0.828125q0.328125 -0.34375 0.84375 -0.515625q0.53125 -0.1875 1.28125 -0.1875l0.53125 0l0 1.0l-0.421875 0q-1.65625 0 -1.65625 1.609375l0 1.671875q0 1.734375 -1.515625 1.96875q1.515625 0.140625 1.515625 1.953125l0 2.453125q0 1.640625 1.65625 1.640625l0.421875 0l0 1.0zm9.526825 -2.9375l-1.609375 0l-2.28125 -3.78125l-2.28125 3.78125l-1.59375 0l3.109375 -4.78125l-2.859375 -4.578125l1.515625 0l2.140625 3.53125l2.15625 -3.53125l1.46875 0l-2.875 4.515625l3.109375 4.84375zm1.808075 -10.359375l0.53125 0q1.375 0 2.046875 0.65625q0.671875 0.640625 0.671875 1.953125l0 1.65625q0 0.34375 0.078125 0.625q0.078125 0.265625 0.28125 0.46875q0.203125 0.1875 0.53125 0.296875q0.328125 0.09375 0.8125 0.09375l0.3125 0l0 0.984375l-0.3125 0q-0.515625 0 -0.859375 0.09375q-0.328125 0.078125 -0.515625 0.265625q-0.1875 0.171875 -0.265625 0.4375q-0.0625 0.265625 -0.0625 0.640625l0 2.515625q0 0.59375 -0.140625 1.078125q-0.140625 0.484375 -0.46875 0.8125q-0.3125 0.34375 -0.84375 0.53125q-0.515625 0.1875 -1.265625 0.1875l-0.53125 0l0 -1.0l0.421875 0q1.65625 0 1.65625 -1.609375l0 -2.484375q0 -1.75 1.515625 -1.953125q-1.53125 -0.171875 -1.53125 -1.96875l0 -1.640625q0 -1.640625 -1.640625 -1.640625l-0.421875 0l0 -1.0z" fill-rule="nonzero"/><path fill="#000000" d="m280.4402 331.4198l-2.125 0l0 -1.03125l3.390625 0l0 6.15625l2.125 0l0 1.03125l-5.75 0l0 -1.03125l2.359375 0l0 -5.125zm0.4375 -4.046875q0.203125 0 0.375 0.078125q0.1875 0.078125 0.3125 0.21875q0.140625 0.125 0.21875 0.3125q0.078125 0.171875 0.078125 0.375q0 0.203125 -0.078125 0.390625q-0.078125 0.171875 -0.21875 0.3125q-0.125 0.125 -0.3125 0.203125q-0.171875 0.078125 -0.375 0.078125q-0.203125 0 -0.390625 -0.078125q-0.171875 -0.078125 -0.3125 -0.203125q-0.125 -0.140625 -0.203125 -0.3125q-0.078125 -0.1875 -0.078125 -0.390625q0 -0.203125 0.078125 -0.375q0.078125 -0.1875 0.203125 -0.3125q0.140625 -0.140625 0.3125 -0.21875q0.1875 -0.078125 0.390625 -0.078125zm10.85495 8.25q0 0.375 -0.125 0.671875q-0.125 0.296875 -0.34375 0.53125q-0.21875 0.234375 -0.515625 0.40625q-0.296875 0.15625 -0.640625 0.265625q-0.328125 0.109375 -0.6875 0.15625q-0.34375 0.046875 -0.671875 0.046875q-0.734375 0 -1.34375 -0.0625q-0.609375 -0.0625 -1.203125 -0.203125l0 -1.140625q0.640625 0.171875 1.25 0.265625q0.625 0.09375 1.25 0.09375q0.890625 0 1.3125 -0.234375q0.4375 -0.25 0.4375 -0.703125q0 -0.1875 -0.078125 -0.34375q-0.0625 -0.15625 -0.25 -0.296875q-0.171875 -0.140625 -0.546875 -0.28125q-0.375 -0.15625 -1.015625 -0.359375q-0.5 -0.140625 -0.90625 -0.3125q-0.40625 -0.1875 -0.71875 -0.4375q-0.296875 -0.25 -0.46875 -0.578125q-0.171875 -0.34375 -0.171875 -0.8125q0 -0.296875 0.140625 -0.65625q0.140625 -0.359375 0.46875 -0.65625q0.34375 -0.3125 0.921875 -0.515625q0.578125 -0.203125 1.421875 -0.203125q0.421875 0 0.9375 0.046875q0.515625 0.046875 1.078125 0.15625l0 1.109375q-0.578125 -0.140625 -1.109375 -0.203125q-0.53125 -0.078125 -0.90625 -0.078125q-0.46875 0 -0.796875 0.078125q-0.3125 0.0625 -0.515625 0.203125q-0.1875 0.125 -0.28125 0.296875q-0.078125 0.15625 -0.078125 0.34375q0 0.203125 0.0625 0.359375q0.078125 0.15625 0.28125 0.3125q0.21875 0.140625 0.578125 0.28125q0.359375 0.140625 0.953125 0.3125q0.640625 0.1875 1.0625 0.390625q0.4375 0.203125 0.703125 0.46875q0.28125 0.25 0.390625 0.5625q0.125 0.3125 0.125 0.71875zm15.05365 1.953125l-0.03125 -0.96875q-0.59375 0.578125 -1.203125 0.84375q-0.59375 0.25 -1.265625 0.25q-0.609375 0 -1.046875 -0.15625q-0.4375 -0.15625 -0.71875 -0.421875q-0.28125 -0.28125 -0.421875 -0.65625q-0.125 -0.375 -0.125 -0.8125q0 -1.078125 0.796875 -1.6875q0.8125 -0.609375 2.390625 -0.609375l1.484375 0l0 -0.640625q0 -0.625 -0.40625 -1.0q-0.40625 -0.390625 -1.25 -0.390625q-0.609375 0 -1.203125 0.140625q-0.578125 0.125 -1.21875 0.375l0 -1.125q0.25 -0.078125 0.53125 -0.15625q0.296875 -0.09375 0.609375 -0.15625q0.328125 -0.0625 0.671875 -0.09375q0.359375 -0.046875 0.71875 -0.046875q0.640625 0 1.15625 0.140625q0.53125 0.140625 0.890625 0.4375q0.359375 0.296875 0.546875 0.75q0.203125 0.4375 0.203125 1.03125l0 4.953125l-1.109375 0zm-0.140625 -3.265625l-1.578125 0q-0.46875 0 -0.8125 0.09375q-0.328125 0.09375 -0.546875 0.265625q-0.21875 0.171875 -0.328125 0.40625q-0.09375 0.234375 -0.09375 0.546875q0 0.203125 0.0625 0.390625q0.0625 0.1875 0.203125 0.34375q0.15625 0.140625 0.375 0.234375q0.234375 0.078125 0.5625 0.078125q0.4375 0 0.984375 -0.265625q0.5625 -0.265625 1.171875 -0.828125l0 -1.265625zm17.756775 -3.21875q0 0.5625 -0.21875 1.125q-0.203125 0.5625 -0.65625 1.015625q-0.453125 0.4375 -1.15625 0.71875q-0.703125 0.265625 -1.671875 0.265625l-1.15625 0l0 3.359375l-1.28125 0l0 -9.359375l2.640625 0q0.6875 0 1.328125 0.15625q0.640625 0.15625 1.125 0.5q0.484375 0.34375 0.765625 0.890625q0.28125 0.546875 0.28125 1.328125zm-1.3125 0.046875q0 -0.890625 -0.59375 -1.375q-0.59375 -0.484375 -1.65625 -0.484375l-1.296875 0l0 3.859375l1.1875 0q1.125 0 1.734375 -0.5q0.625 -0.5 0.625 -1.5zm9.3237 2.46875q0 0.265625 -0.015625 0.453125q0 0.171875 -0.015625 0.328125l-5.046875 0q0 1.09375 0.609375 1.6875q0.625 0.59375 1.78125 0.59375q0.3125 0 0.625 -0.015625q0.3125 -0.03125 0.609375 -0.078125q0.296875 -0.046875 0.5625 -0.09375q0.265625 -0.0625 0.5 -0.125l0 1.03125q-0.515625 0.140625 -1.15625 0.21875q-0.640625 0.09375 -1.328125 0.09375q-0.921875 0 -1.59375 -0.25q-0.65625 -0.25 -1.078125 -0.71875q-0.421875 -0.484375 -0.625 -1.171875q-0.203125 -0.6875 -0.203125 -1.5625q0 -0.765625 0.21875 -1.4375q0.21875 -0.671875 0.625 -1.1875q0.421875 -0.515625 1.03125 -0.8125q0.609375 -0.296875 1.375 -0.296875q0.765625 0 1.34375 0.234375q0.578125 0.234375 0.96875 0.671875q0.40625 0.4375 0.609375 1.0625q0.203125 0.609375 0.203125 1.375zm-1.296875 -0.1875q0.015625 -0.46875 -0.109375 -0.859375q-0.109375 -0.40625 -0.34375 -0.6875q-0.234375 -0.296875 -0.59375 -0.453125q-0.359375 -0.15625 -0.828125 -0.15625q-0.40625 0 -0.75 0.15625q-0.328125 0.15625 -0.578125 0.4375q-0.25 0.28125 -0.40625 0.6875q-0.140625 0.40625 -0.171875 0.875l3.78125 0zm3.5737 -3.03125l1.140625 0l0.03125 1.328125q0.640625 -0.765625 1.25 -1.109375q0.625 -0.34375 1.25 -0.34375q1.125 0 1.703125 0.71875q0.578125 0.71875 0.53125 2.15625l-1.265625 0q0.03125 -0.953125 -0.265625 -1.375q-0.296875 -0.421875 -0.875 -0.421875q-0.25 0 -0.515625 0.09375q-0.25 0.078125 -0.515625 0.28125q-0.265625 0.1875 -0.5625 0.5q-0.296875 0.3125 -0.640625 0.75l0 4.609375l-1.265625 0l0 -7.1875zm13.4487 5.234375q0 0.375 -0.125 0.671875q-0.125 0.296875 -0.34375 0.53125q-0.21875 0.234375 -0.515625 0.40625q-0.296875 0.15625 -0.640625 0.265625q-0.328125 0.109375 -0.6875 0.15625q-0.34375 0.046875 -0.671875 0.046875q-0.734375 0 -1.34375 -0.0625q-0.609375 -0.0625 -1.203125 -0.203125l0 -1.140625q0.640625 0.171875 1.25 0.265625q0.625 0.09375 1.25 0.09375q0.890625 0 1.3125 -0.234375q0.4375 -0.25 0.4375 -0.703125q0 -0.1875 -0.078125 -0.34375q-0.0625 -0.15625 -0.25 -0.296875q-0.171875 -0.140625 -0.546875 -0.28125q-0.375 -0.15625 -1.015625 -0.359375q-0.5 -0.140625 -0.90625 -0.3125q-0.40625 -0.1875 -0.71875 -0.4375q-0.296875 -0.25 -0.46875 -0.578125q-0.171875 -0.34375 -0.171875 -0.8125q0 -0.296875 0.140625 -0.65625q0.140625 -0.359375 0.46875 -0.65625q0.34375 -0.3125 0.921875 -0.515625q0.578125 -0.203125 1.421875 -0.203125q0.421875 0 0.9375 0.046875q0.515625 0.046875 1.078125 0.15625l0 1.109375q-0.578125 -0.140625 -1.109375 -0.203125q-0.53125 -0.078125 -0.90625 -0.078125q-0.46875 0 -0.796875 0.078125q-0.3125 0.0625 -0.515625 0.203125q-0.1875 0.125 -0.28125 0.296875q-0.078125 0.15625 -0.078125 0.34375q0 0.203125 0.0625 0.359375q0.078125 0.15625 0.28125 0.3125q0.21875 0.140625 0.578125 0.28125q0.359375 0.140625 0.953125 0.3125q0.640625 0.1875 1.0625 0.390625q0.4375 0.203125 0.703125 0.46875q0.28125 0.25 0.390625 0.5625q0.125 0.3125 0.125 0.71875zm8.6362 -1.703125q0 0.84375 -0.25 1.546875q-0.234375 0.6875 -0.671875 1.1875q-0.4375 0.5 -1.078125 0.78125q-0.640625 0.265625 -1.453125 0.265625q-0.765625 0 -1.390625 -0.234375q-0.609375 -0.234375 -1.03125 -0.703125q-0.421875 -0.46875 -0.65625 -1.15625q-0.21875 -0.6875 -0.21875 -1.578125q0 -0.84375 0.234375 -1.53125q0.234375 -0.6875 0.671875 -1.1875q0.453125 -0.5 1.09375 -0.765625q0.640625 -0.28125 1.4375 -0.28125q0.78125 0 1.390625 0.25q0.609375 0.234375 1.03125 0.703125q0.4375 0.453125 0.65625 1.140625q0.234375 0.6875 0.234375 1.5625zm-1.28125 0.0625q0 -0.671875 -0.15625 -1.15625q-0.140625 -0.5 -0.421875 -0.828125q-0.265625 -0.34375 -0.65625 -0.5q-0.375 -0.171875 -0.859375 -0.171875q-0.5625 0 -0.96875 0.21875q-0.390625 0.21875 -0.640625 0.578125q-0.25 0.359375 -0.375 0.84375q-0.109375 0.484375 -0.109375 1.015625q0 0.671875 0.140625 1.171875q0.140625 0.5 0.40625 0.828125q0.28125 0.328125 0.671875 0.5q0.390625 0.171875 0.875 0.171875q0.5625 0 0.953125 -0.21875q0.390625 -0.21875 0.640625 -0.578125q0.265625 -0.375 0.375 -0.859375q0.125 -0.484375 0.125 -1.015625zm3.0737 -3.59375l1.109375 0l0.046875 1.15625q0.328125 -0.359375 0.609375 -0.609375q0.296875 -0.25 0.578125 -0.390625q0.28125 -0.15625 0.578125 -0.21875q0.296875 -0.0625 0.609375 -0.0625q1.109375 0 1.671875 0.65625q0.578125 0.65625 0.578125 1.96875l0 4.6875l-1.25 0l0 -4.59375q0 -0.84375 -0.3125 -1.234375q-0.3125 -0.40625 -0.9375 -0.40625q-0.234375 0 -0.453125 0.0625q-0.21875 0.0625 -0.453125 0.234375q-0.234375 0.171875 -0.515625 0.453125q-0.265625 0.28125 -0.609375 0.71875l0 4.765625l-1.25 0l0 -7.1875zm10.8862 4.9375q0.25 0 0.46875 0.09375q0.21875 0.09375 0.375 0.265625q0.15625 0.15625 0.25 0.375q0.09375 0.21875 0.09375 0.46875q0 0.234375 -0.09375 0.453125q-0.09375 0.21875 -0.25 0.375q-0.15625 0.15625 -0.375 0.25q-0.21875 0.09375 -0.46875 0.09375q-0.25 0 -0.46875 -0.09375q-0.203125 -0.09375 -0.375 -0.25q-0.15625 -0.15625 -0.25 -0.375q-0.09375 -0.21875 -0.09375 -0.453125q0 -0.25 0.09375 -0.46875q0.09375 -0.21875 0.25 -0.375q0.171875 -0.171875 0.375 -0.265625q0.21875 -0.09375 0.46875 -0.09375z" fill-rule="nonzero"/><path fill="#000000" fill-opacity="0.0" d="m435.25986 314.49606l176.09445 0l0 37.165344l-176.09445 0z" fill-rule="evenodd"/><path fill="#45818e" d="m465.26437 340.51355l-0.53125 0q-1.375 0 -2.0625 -0.65625q-0.671875 -0.640625 -0.671875 -1.953125l0 -2.46875q0 -0.34375 -0.078125 -0.625q-0.078125 -0.28125 -0.28125 -0.46875q-0.1875 -0.1875 -0.515625 -0.28125q-0.328125 -0.109375 -0.8125 -0.109375l-0.3125 0l0 -0.984375l0.3125 0q0.515625 0 0.84375 -0.078125q0.328125 -0.09375 0.515625 -0.265625q0.1875 -0.1875 0.25 -0.453125q0.078125 -0.28125 0.078125 -0.640625l0 -1.703125q0 -0.59375 0.140625 -1.078125q0.15625 -0.484375 0.46875 -0.828125q0.328125 -0.34375 0.84375 -0.515625q0.53125 -0.1875 1.28125 -0.1875l0.53125 0l0 1.0l-0.421875 0q-1.65625 0 -1.65625 1.609375l0 1.671875q0 1.734375 -1.515625 1.96875q1.515625 0.140625 1.515625 1.953125l0 2.453125q0 1.640625 1.65625 1.640625l0.421875 0l0 1.0zm9.526825 -2.9375l-1.609375 0l-2.28125 -3.78125l-2.28125 3.78125l-1.59375 0l3.109375 -4.78125l-2.859375 -4.578125l1.515625 0l2.140625 3.53125l2.15625 -3.53125l1.46875 0l-2.875 4.515625l3.109375 4.84375zm1.808075 -10.359375l0.53125 0q1.375 0 2.046875 0.65625q0.671875 0.640625 0.671875 1.953125l0 1.65625q0 0.34375 0.078125 0.625q0.078125 0.265625 0.28125 0.46875q0.203125 0.1875 0.53125 0.296875q0.328125 0.09375 0.8125 0.09375l0.3125 0l0 0.984375l-0.3125 0q-0.515625 0 -0.859375 0.09375q-0.328125 0.078125 -0.515625 0.265625q-0.1875 0.171875 -0.265625 0.4375q-0.0625 0.265625 -0.0625 0.640625l0 2.515625q0 0.59375 -0.140625 1.078125q-0.140625 0.484375 -0.46875 0.8125q-0.3125 0.34375 -0.84375 0.53125q-0.515625 0.1875 -1.265625 0.1875l-0.53125 0l0 -1.0l0.421875 0q1.65625 0 1.65625 -1.609375l0 -2.484375q0 -1.75 1.515625 -1.953125q-1.53125 -0.171875 -1.53125 -1.96875l0 -1.640625q0 -1.640625 -1.640625 -1.640625l-0.421875 0l0 -1.0z" fill-rule="nonzero"/><path fill="#000000" d="m498.35605 333.8573q0 0.890625 -0.25 1.59375q-0.234375 0.703125 -0.703125 1.203125q-0.453125 0.484375 -1.109375 0.75q-0.640625 0.25 -1.453125 0.25q-0.640625 0 -1.3125 -0.109375q-0.65625 -0.125 -1.3125 -0.390625l0 -9.6875l1.25 0l0 2.78125l-0.0625 1.328125q0.546875 -0.71875 1.15625 -1.015625q0.609375 -0.296875 1.3125 -0.296875q0.609375 0 1.078125 0.265625q0.46875 0.25 0.78125 0.71875q0.3125 0.46875 0.46875 1.140625q0.15625 0.65625 0.15625 1.46875zm-1.265625 0.046875q0 -0.5625 -0.09375 -1.03125q-0.078125 -0.46875 -0.265625 -0.796875q-0.171875 -0.34375 -0.453125 -0.53125q-0.265625 -0.1875 -0.65625 -0.1875q-0.234375 0 -0.484375 0.078125q-0.234375 0.0625 -0.5 0.25q-0.265625 0.171875 -0.5625 0.46875q-0.28125 0.28125 -0.609375 0.703125l0 3.484375q0.359375 0.140625 0.734375 0.234375q0.390625 0.078125 0.734375 0.078125q0.421875 0 0.8125 -0.125q0.390625 -0.140625 0.6875 -0.453125q0.296875 -0.328125 0.46875 -0.859375q0.1875 -0.53125 0.1875 -1.3125zm9.4487 0.015625q0 0.84375 -0.25 1.546875q-0.234375 0.6875 -0.671875 1.1875q-0.4375 0.5 -1.078125 0.78125q-0.640625 0.265625 -1.453125 0.265625q-0.765625 0 -1.390625 -0.234375q-0.609375 -0.234375 -1.03125 -0.703125q-0.421875 -0.46875 -0.65625 -1.15625q-0.21875 -0.6875 -0.21875 -1.578125q0 -0.84375 0.234375 -1.53125q0.234375 -0.6875 0.671875 -1.1875q0.453125 -0.5 1.09375 -0.765625q0.640625 -0.28125 1.4375 -0.28125q0.78125 0 1.390625 0.25q0.609375 0.234375 1.03125 0.703125q0.4375 0.453125 0.65625 1.140625q0.234375 0.6875 0.234375 1.5625zm-1.28125 0.0625q0 -0.671875 -0.15625 -1.15625q-0.140625 -0.5 -0.421875 -0.828125q-0.265625 -0.34375 -0.65625 -0.5q-0.375 -0.171875 -0.859375 -0.171875q-0.5625 0 -0.96875 0.21875q-0.390625 0.21875 -0.640625 0.578125q-0.25 0.359375 -0.375 0.84375q-0.109375 0.484375 -0.109375 1.015625q0 0.671875 0.140625 1.171875q0.140625 0.5 0.40625 0.828125q0.28125 0.328125 0.671875 0.5q0.390625 0.171875 0.875 0.171875q0.5625 0 0.953125 -0.21875q0.390625 -0.21875 0.640625 -0.578125q0.265625 -0.375 0.375 -0.859375q0.125 -0.484375 0.125 -1.015625zm3.370575 -3.59375l1.140625 0l0.03125 1.328125q0.640625 -0.765625 1.25 -1.109375q0.625 -0.34375 1.2499695 -0.34375q1.125 0 1.703125 0.71875q0.578125 0.71875 0.53125 2.15625l-1.265625 0q0.03125 -0.953125 -0.265625 -1.375q-0.296875 -0.421875 -0.875 -0.421875q-0.24996948 0 -0.5155945 0.09375q-0.25 0.078125 -0.515625 0.28125q-0.265625 0.1875 -0.5625 0.5q-0.296875 0.3125 -0.640625 0.75l0 4.609375l-1.265625 0l0 -7.1875zm7.7612 0l1.109375 0l0.046875 1.15625q0.328125 -0.359375 0.609375 -0.609375q0.296875 -0.25 0.578125 -0.390625q0.28125 -0.15625 0.578125 -0.21875q0.296875 -0.0625 0.609375 -0.0625q1.109375 0 1.671875 0.65625q0.578125 0.65625 0.578125 1.96875l0 4.6875l-1.25 0l0 -4.59375q0 -0.84375 -0.3125 -1.234375q-0.3125 -0.40625 -0.9375 -0.40625q-0.234375 0 -0.453125 0.0625q-0.21875 0.0625 -0.453125 0.234375q-0.234375 0.171875 -0.515625 0.453125q-0.265625 0.28125 -0.609375 0.71875l0 4.765625l-1.25 0l0 -7.1875zm18.569275 1.03125l-2.125 0l0 -1.03125l3.390625 0l0 6.15625l2.125 0l0 1.03125l-5.75 0l0 -1.03125l2.359375 0l0 -5.125zm0.4375 -4.046875q0.203125 0 0.375 0.078125q0.1875 0.078125 0.3125 0.21875q0.140625 0.125 0.21875 0.3125q0.078125 0.171875 0.078125 0.375q0 0.203125 -0.078125 0.390625q-0.078125 0.171875 -0.21875 0.3125q-0.125 0.125 -0.3125 0.203125q-0.171875 0.078125 -0.375 0.078125q-0.203125 0 -0.390625 -0.078125q-0.171875 -0.078125 -0.3125 -0.203125q-0.125 -0.140625 -0.203125 -0.3125q-0.078125 -0.1875 -0.078125 -0.390625q0 -0.203125 0.078125 -0.375q0.078125 -0.1875 0.203125 -0.3125q0.140625 -0.140625 0.3125 -0.21875q0.1875 -0.078125 0.390625 -0.078125zm5.1674194 3.015625l1.109375 0l0.046875 1.15625q0.328125 -0.359375 0.609375 -0.609375q0.296875 -0.25 0.578125 -0.390625q0.28125 -0.15625 0.578125 -0.21875q0.296875 -0.0625 0.609375 -0.0625q1.109375 0 1.671875 0.65625q0.578125 0.65625 0.578125 1.96875l0 4.6875l-1.25 0l0 -4.59375q0 -0.84375 -0.3125 -1.234375q-0.3125 -0.40625 -0.9375 -0.40625q-0.234375 0 -0.453125 0.0625q-0.21875 0.0625 -0.453125 0.234375q-0.234375 0.171875 -0.515625 0.453125q-0.265625 0.28125 -0.609375 0.71875l0 4.765625l-1.25 0l0 -7.1875z" fill-rule="nonzero"/><path fill="#674ea7" d="m561.96124 340.51355l-0.53125 0q-1.375 0 -2.0625 -0.65625q-0.671875 -0.640625 -0.671875 -1.953125l0 -2.46875q0 -0.34375 -0.078125 -0.625q-0.078125 -0.28125 -0.28125 -0.46875q-0.1875 -0.1875 -0.515625 -0.28125q-0.328125 -0.109375 -0.8125 -0.109375l-0.3125 0l0 -0.984375l0.3125 0q0.515625 0 0.84375 -0.078125q0.328125 -0.09375 0.515625 -0.265625q0.1875 -0.1875 0.25 -0.453125q0.078125 -0.28125 0.078125 -0.640625l0 -1.703125q0 -0.59375 0.140625 -1.078125q0.15625 -0.484375 0.46875 -0.828125q0.328125 -0.34375 0.84375 -0.515625q0.53125 -0.1875 1.28125 -0.1875l0.53125 0l0 1.0l-0.421875 0q-1.65625 0 -1.65625 1.609375l0 1.671875q0 1.734375 -1.515625 1.96875q1.515625 0.140625 1.515625 1.953125l0 2.453125q0 1.640625 1.65625 1.640625l0.421875 0l0 1.0zm9.69873 -12.296875l-3.390625 6.015625l0 3.34375l-1.28125 0l0 -3.375l-3.390625 -5.984375l1.53125 0l1.875 3.421875l0.6875 1.375l0.625 -1.234375l1.875 -3.5625l1.46875 0zm1.6361694 -1.0l0.53125 0q1.375 0 2.046875 0.65625q0.671875 0.640625 0.671875 1.953125l0 1.65625q0 0.34375 0.078125 0.625q0.078125 0.265625 0.28125 0.46875q0.203125 0.1875 0.53125 0.296875q0.328125 0.09375 0.8125 0.09375l0.3125 0l0 0.984375l-0.3125 0q-0.515625 0 -0.859375 0.09375q-0.328125 0.078125 -0.515625 0.265625q-0.1875 0.171875 -0.265625 0.4375q-0.0625 0.265625 -0.0625 0.640625l0 2.515625q0 0.59375 -0.140625 1.078125q-0.140625 0.484375 -0.46875 0.8125q-0.3125 0.34375 -0.84375 0.53125q-0.515625 0.1875 -1.265625 0.1875l-0.53125 0l0 -1.0l0.421875 0q1.65625 0 1.65625 -1.609375l0 -2.484375q0 -1.75 1.515625 -1.953125q-1.53125 -0.171875 -1.53125 -1.96875l0 -1.640625q0 -1.640625 -1.640625 -1.640625l-0.421875 0l0 -1.0z" fill-rule="nonzero"/><path fill="#000000" d="m583.6824 335.32605q0.25 0 0.46875 0.09375q0.21875 0.09375 0.375 0.265625q0.15625 0.15625 0.25 0.375q0.09375 0.21875 0.09375 0.46875q0 0.234375 -0.09375 0.453125q-0.09375 0.21875 -0.25 0.375q-0.15625 0.15625 -0.375 0.25q-0.21875 0.09375 -0.46875 0.09375q-0.25 0 -0.46875 -0.09375q-0.203125 -0.09375 -0.375 -0.25q-0.15625 -0.15625 -0.25 -0.375q-0.09375 -0.21875 -0.09375 -0.453125q0 -0.25 0.09375 -0.46875q0.09375 -0.21875 0.25 -0.375q0.171875 -0.171875 0.375 -0.265625q0.21875 -0.09375 0.46875 -0.09375z" fill-rule="nonzero"/><path fill="#000000" fill-opacity="0.0" d="m309.07874 87.968506l0 40.758347l-214.2362 0l0 40.753464" fill-rule="evenodd"/><path stroke="#000000" stroke-width="1.0" stroke-linejoin="round" stroke-linecap="butt" d="m309.07874 87.968506l0 40.758347l-214.2362 0l0 34.753464" fill-rule="evenodd"/><path fill="#000000" stroke="#000000" stroke-width="1.0" stroke-linecap="butt" d="m93.19079 163.48032l1.6517334 4.538101l1.6517334 -4.538101z" fill-rule="evenodd"/><path fill="#000000" fill-opacity="0.0" d="m309.07874 87.968506l0 40.758347l0.06298828 0l0 40.753464" fill-rule="evenodd"/><path stroke="#000000" stroke-width="1.0" stroke-linejoin="round" stroke-linecap="butt" d="m309.07874 87.968506l0 40.758347l0.06298828 0l0 34.753464" fill-rule="evenodd"/><path fill="#000000" stroke="#000000" stroke-width="1.0" stroke-linecap="butt" d="m307.49 163.48032l1.6517334 4.538101l1.6517334 -4.538101z" fill-rule="evenodd"/><path fill="#000000" fill-opacity="0.0" d="m309.07874 87.968506l0 40.758347l214.2362 0l0 40.753464" fill-rule="evenodd"/><path stroke="#000000" stroke-width="1.0" stroke-linejoin="round" stroke-linecap="butt" d="m309.07874 87.968506l0 40.758347l214.2362 0l0 34.753464" fill-rule="evenodd"/><path fill="#000000" stroke="#000000" stroke-width="1.0" stroke-linecap="butt" d="m521.6632 163.48032l1.6517334 4.538101l1.6517334 -4.538101z" fill-rule="evenodd"/></g></svg>